<?xml version="1.0" encoding="UTF-8" standalone="no"?>
<!-- Created with Inkscape (http://www.inkscape.org/) -->

<svg
   version="1.1"
   id="svg1"
   width="1228.8"
   height="691.20001"
   viewBox="0 0 1228.8 691.20001"
   sodipodi:docname="LOGO_1.svg"
   inkscape:version="1.4 (86a8ad7, 2024-10-11)"
   xmlns:inkscape="http://www.inkscape.org/namespaces/inkscape"
   xmlns:sodipodi="http://sodipodi.sourceforge.net/DTD/sodipodi-0.dtd"
   xmlns="http://www.w3.org/2000/svg"
   xmlns:svg="http://www.w3.org/2000/svg">
  <defs
     id="defs1" />
  <sodipodi:namedview
     id="namedview1"
     pagecolor="#505050"
     bordercolor="#eeeeee"
     borderopacity="1"
     inkscape:showpageshadow="0"
     inkscape:pageopacity="0"
     inkscape:pagecheckerboard="0"
     inkscape:deskcolor="#505050"
     inkscape:zoom="0.43872974"
     inkscape:cx="242.74625"
     inkscape:cy="201.71872"
     inkscape:window-width="2560"
     inkscape:window-height="1494"
     inkscape:window-x="-11"
     inkscape:window-y="-11"
     inkscape:window-maximized="1"
     inkscape:current-layer="g1" />
  <g
     inkscape:groupmode="layer"
     inkscape:label="Image"
     id="g1"
     style="display:inline">
    <path
       style="fill:#020202;stroke:none"
       d="m 254.62313,175.30077 c 1.7941,0.30903 3.7476,2.08106 4.8,3.52 l 1.6,0.96 c 2.1681,-0.0225 5.1349,2.90641 7.04,4.00887 3.6759,2.12719 8.4412,4.72481 12.48,6.07113 10.7416,3.58063 23.2032,6.60313 34.6845,5.84 6.844,-0.45488 14.3515,-2.06437 20.9245,-3.86664 16.3729,-4.48941 30.4038,-14.93633 43.2711,-25.6889 13.6857,-11.43649 22.9617,-29.55028 26.3644,-46.84446 1.4557,-7.39824 2.8533,-14.3998 2.0889,-22.079994 -1.4691,-14.760748 -7.6315,-28.46606 -15.2089,-40.96001 -4.632,-7.63742 -10.0743,-15.3432 -16.7911,-21.31554 -10.7172,-9.529377 -24.4423,-17.580549 -38.3733,-21.288909 -26.4078,-7.0296104 -57.8324,-1.267734 -80.0001,14.64 -11.5198,8.266719 -22.6959,18.948629 -29.5733,31.484449 -8.1732,14.897932 -12.7787,31.24946 -11.04,48.320004 1.8526,18.18949 8.7298,34.96934 20.2578,49.28 3.2947,4.09 6.7959,8.23489 10.7466,11.71555 1.9198,1.69137 5.7796,3.88016 6.7289,6.20445 m 72.9601,-150.4 h 0.32 c 0.9057,-0.695781 1.7952,-0.04281 2.88,0.09781 2.6238,0.340156 4.8815,1.238828 7.36,2.151094 7.6616,2.820002 16.6077,8.579292 21.3067,15.324412 1.4618,2.0984 3.3811,4.14332 3.8933,6.74668 0.4787,2.43324 -1.8306,5.47817 -3.12,7.36 -4.3129,6.29438 -11.0174,10.96367 -16.64,16.026682 -2.9121,2.62223 -5.4924,5.41543 -8.64,7.76887 -1.5047,1.125 -3.4854,2.65801 -5.44,2.44445 -0.7711,1.55992 -6.0914,2.47531 -7.68,1.92 v 0.64 c -1.5087,0.0634 -2.9012,1.258828 -4.1601,0 h -0.32 c -1.024,0.847658 -1.9019,-0.14664 -3.0755,-0.36445 -2.5129,-0.46633 -7.8362,-1.33445 -9.0845,-3.79555 -1.3804,0.33063 -2.9711,-0.60125 -3.52,-1.92 -3.3067,0.48633 -6.8109,-5.0068 -8.5333,-7.33332 -3.0873,-4.170152 -3.9516,-9.769222 -6,-14.426682 -2.7716,-6.30144 -9.8575,-13.02629 -5.1644,-20.48 3.6161,-5.74328 8.0089,-7.992889 13.9377,-10.586717 1.4966,-0.654766 5.0503,-2.32375 6.4,-1.253282 l 0.32,-0.96 c 3.3189,0.309532 7.4464,-1.140625 10.8089,-1.511093 2.422,-0.266797 5.2987,0.400312 7.7512,0.542187 1.598,0.0925 5.6627,0.117422 6.4,1.608906 m -0.8533,-0.42664 0.1066,0.213281 -0.1066,-0.213281 m -19.6268,51.306641 -0.32,0.96 5.76,1.92 c 2.7795,-0.70074 5.7526,1.13414 8.6401,0.82668 3.3165,-0.35316 7.6243,-1.26277 10.56,-2.88004 3.4197,-1.88394 5.9132,-4.9348 8.96,-7.226642 0.2152,-1.80633 2.8292,-4.26527 3.7155,-6.08 1.901,-3.89191 1.8215,-9.01051 0.6134,-13.12 -1.7022,-5.79008 -5.0213,-10.08398 -10.0889,-13.33332 -12.8181,-8.218866 -32.1417,-9.462929 -40.1156,6.09777 -4.3199,8.43012 -1.1743,20.76676 4.8711,27.520002 1.8438,2.05977 4.5488,4.85961 7.4044,5.31555 m -29.12,-8.960002 c 1.4827,0.57778 2.1618,1.90262 3.1556,3.075552 2.6792,3.16242 8.0525,7.59742 8.3644,11.96445 1.474,-0.0353 2.1417,4.152458 2.2311,5.439998 0.2689,3.87098 2.0757,7.96383 1.5823,11.84 -0.1858,1.458714 -0.9279,3.077034 -1.3956,4.480004 -4.9554,14.86571 -20.705,18.26578 -30.7733,28.72891 -3.8195,3.96926 -8.8875,10.97457 -14.8445,8.07109 v 1.6 l -2.88,-2.88 h 0.96 c -3.0559,-2.01148 -4.8831,-5.23355 -6.8622,-8.32 -5.1987,-8.10769 -7.2446,-19.3766 -8.2044,-28.8 -0.331,-3.249844 -0.3235,-6.350394 0,-9.600004 0.14,-1.40676 -0.172,-2.52597 0.9866,-3.52 -0.926,-1.58551 0.043,-3.445578 0.5156,-5.119998 1.2747,-4.51355 3.1836,-8.40644 5.4844,-12.48 1.3036,-2.307892 2.9078,-4.592112 4.4889,-6.720002 4.8179,-6.48383 10.2075,-14.79519 17.0311,-19.36 4.4098,-2.95004 9.7384,0.20602 12.3556,4 1.8521,2.68496 2.4019,6.25383 3.4667,9.28 0.6392,1.81684 1.6846,3.80582 2.7466,5.41332 0.7079,1.07149 1.6583,1.57406 1.5911,2.90668 m 230.0801,413.440014 h 0.32 c 2.2562,-2.05371 3.6147,-4.65059 5.44,-7.04 3.1736,-4.15457 6.7463,-8.16156 10.5867,-11.71555 3.0903,-2.85992 7.0837,-4.06027 10.2133,-6.87109 4.9823,-4.47489 7.8253,-10.52981 11.9644,-15.65336 1.8678,-2.31192 4.3036,-4.11899 6.2045,-6.4 2.3667,-2.84 4.1372,-6.13672 6.5422,-8.96 2.3098,-2.71157 5.1599,-4.84414 6.9422,-8 1.9164,-3.39305 2.93,-8.0793 4.0356,-11.84 0.8709,-2.96246 -0.017,-5.127 -0.4623,-8 -0.6004,-3.87203 -0.9688,-7.92274 -0.9688,-11.84 0,-11.93133 2.7581,-23.4825 6.0622,-34.88 5.7173,3.60332 9.7551,8.87617 15.04,12.98668 8.4677,6.58605 17.958,11.93297 26.2133,18.80886 4.9354,4.11063 10.112,8.04485 15.7067,11.21778 3.5726,2.02613 6.5344,4.35043 10.88,4.47113 4.2194,0.11723 6.498,-4.82879 10.56,-5.92891 4.2108,-1.14039 8.3287,-0.94859 12.5511,-2.43554 6.9149,-2.43516 13.7236,-5.83571 20.4089,-8.85332 1.7693,-0.79864 3.3367,-2.14809 5.12,-2.86223 3.6992,-1.48141 8.2882,-1.65832 12.16,-2.76445 l 0.32,1.28 c -2.6902,0.51996 -5.3308,1.25843 -8,1.85777 -1.2211,0.27418 -3.3474,0.39168 -4.32,1.24445 -0.6434,0.5641 -0.4302,1.58653 -0.5067,2.33778 -0.2186,2.14718 -0.5144,4.24621 -0.32,6.4 0.6612,7.32437 0.4076,15.08976 -0.32,22.4 -1.035,10.39906 -0.658,20.91719 -1.2622,31.36 -0.2151,3.71726 -0.8479,7.48437 -0.9511,11.2 -0.3502,12.60922 0.2257,25.2389 -0.9334,37.76 -0.6069,6.55641 -0.9185,13.28594 -1.2977,19.84 -0.1223,2.11297 0.7981,5.79676 -0.24,7.67109 -0.6359,1.14821 -1.8687,0.91414 -2.9689,0.97782 -2.461,0.14242 -4.8745,0.43242 -7.36,0.32886 -5.5594,-0.23168 -11.0925,-0.65972 -16.64,-0.94222 -5.341,-0.27204 -10.6298,0.60195 -16,-0.10664 -2.4631,-0.325 -5.5595,-0.73137 -8,-0.78223 -1.2203,-0.0254 -3.6044,0.50754 -3.7778,-1.38668 -0.2646,-2.88844 2.8319,-7.35867 4.0178,-9.92 3.8867,-8.39516 7.6121,-16.94524 10.8978,-25.6 7.5737,-19.94961 15.5175,-40.01328 24.1422,-59.52 5.658,-12.79707 11.9798,-25.69852 16.24,-39.04 l -0.32,-0.32 c -6.2487,2.10031 -12.0992,5.58882 -18.24,7.99109 -1.8467,0.72242 -3.8144,1.35559 -5.7334,1.84891 -0.6699,0.17222 -1.5556,-0.0488 -2.0622,0.50668 -1.5194,1.66609 -2.0202,5.18011 -2.8889,7.25332 -1.4287,3.41008 -2.8845,6.88992 -4.4355,10.24 -0.5202,1.12367 -1.5945,2.08195 -1.9911,3.2089 -0.9225,2.62176 -1.3888,6.0761 -3.6889,7.9911 l -1.28,3.2 c 0.3551,2.41539 -1.5464,5.45972 -2.4356,7.68 -2.132,5.32406 -4.3517,10.63715 -6.4,16 -8.1083,21.22961 -16.9075,42.16098 -25.8489,63.04 -0.6044,1.41156 -1.6043,3.73266 -3.3955,3.78664 -1.1134,0.0336 -2.429,-1.23156 -3.44,-0.47109 -0.9632,0.72453 -1.2766,2.36019 -1.76,3.40445 -1.3217,2.85492 -3.3597,6.69176 -3.4045,9.92 -0.016,1.13445 0.9681,1.81398 1.1556,2.88 0.3693,2.09937 -1.1224,4.80664 -1.8222,6.72 -1.8116,4.95309 -3.3685,9.97355 -5.6978,14.72 -0.5764,1.17449 -3.4011,6.26402 -1.6356,7.05777 1.6658,0.74895 5.437,10e-4 7.3245,0.0711 2.4106,0.0892 4.9628,0.0191 7.36,0.25777 1.4048,0.1398 3.4122,0.79 4.7289,-0.009 1.5067,-0.91418 2.3487,-4.21949 3.0666,-5.77777 l 6.5245,-14.08 c 0.6752,-1.45852 1.1547,-4.66648 2.3555,-5.65336 1.2423,-1.02094 5.6801,-0.10664 7.3245,-0.10664 4.9932,0 10.0295,0.56434 15.04,0.43555 2.6679,-0.0686 6.0862,-0.94364 8.64,0.20445 h 0.32 c 2.3484,-1.0459 5.7673,0.0117 8.32,-0.0533 5.3667,-0.13668 11.303,-0.74668 16.64,-0.0178 1.6637,0.22718 6.3026,0.19742 7.1022,2 0.5633,1.26984 0.1009,4.33945 0.036,5.75109 -0.1266,2.73477 0.1482,5.58062 -0.1245,8.32 -0.2965,2.97953 -1.0258,6.40062 0.027,9.28 3.759,-0.37906 7.4624,0.0441 11.2,-0.29332 1.052,-0.095 3.1663,0.41652 3.9289,-0.50668 0.8228,-0.99609 0.5511,-3.12805 0.5511,-4.32 0,-3.43305 -0.32,-6.82981 -0.32,-10.24 0,-1.69586 -0.4883,-4.58348 1.92,-4.74668 7.1864,-0.48691 14.5071,0.76051 21.76,0.54223 2.1017,-0.0633 6.2683,-0.26961 7.9734,1.11109 1.1614,0.94051 0.7676,2.75457 0.5422,4.05336 -0.5892,3.39359 -0.4621,6.82539 -0.96,10.24 -0.1716,1.17621 -0.8007,4.43875 0.48,5.12891 0.7245,0.39043 1.758,-0.0847 2.5244,-0.17782 1.9085,-0.23183 3.8152,-0.0245 5.76,-0.19554 1.4936,-0.13137 3.7847,0.64683 5.1111,0.2489 1.668,-0.50039 1.5428,-3.64281 1.8045,-5.00445 0.8519,-4.43395 0.2258,-8.97379 0.96,-13.44 0.175,-1.06449 -0.1606,-2.54102 0.4266,-3.48445 0.8006,-1.2861 3.5428,-0.63426 4.8178,-0.68446 4.2611,-0.16765 8.5275,-0.72461 12.8,-0.94218 6.044,-0.30782 12.5374,-0.90207 18.56,-0.49782 4.3096,0.2893 8.4849,1.03801 12.8,1.21782 3.3114,0.13796 8.4676,-1.24711 11.52,0.33773 2.1086,1.09484 2.6658,4.00012 3.52,5.97336 1.7368,4.01219 2.9321,7.96648 4.2134,12.16 0.3654,1.19578 0.4319,4.45977 1.3334,5.23555 0.7464,0.64242 2.4849,0.36074 3.4132,0.38222 3.155,0.073 6.3974,-0.0834 9.5734,-0.22222 1.9282,-0.0843 5.3433,0.64543 7.0311,-0.11555 1.0663,-0.48078 0.4194,-1.60219 0.1866,-2.4 -0.6735,-2.30914 -1.4444,-4.67516 -1.8222,-7.04 -0.9376,-5.87035 -3.9336,-11.17875 -4.0889,-17.28 -0.06,-2.34981 1.2888,-2.86125 2.0089,-4.8 0.8741,-2.35313 0.4689,-6.81672 -0.7289,-8.96 -1.5023,0.11289 -5.9596,0.1434 -6.9422,-0.98664 -1.6915,-1.94559 -1.9072,-5.64695 -3.0489,-7.97336 -2.36,-4.80902 -3.2271,-9.94309 -4.6311,-15.04 -1.6946,-6.15242 -3.9564,-12.14735 -5.7333,-18.24 -1.4142,-4.8491 -3.4301,-9.52383 -4.7734,-14.4 -0.8688,-3.15391 -1.3604,-6.50028 -2.2933,-9.6 -1.7446,-5.79778 -4.3384,-11.40891 -5.9556,-17.28 -5.3272,-19.34008 -11.2544,-38.56149 -17.6444,-57.6 -1.0328,-3.07711 -2.7762,-5.91547 -3.8756,-8.96 -0.6638,-1.83836 -0.4095,-3.64414 -0.9333,-5.44 -1.7391,-5.96278 -3.4359,-11.94625 -5.1644,-17.92 -0.8078,-2.79184 -0.9788,-6.9011 -2.96,-9.18223 -1.0607,-1.22121 -3.6973,-1.05777 -5.1645,-1.05777 -3.9525,0 -7.8904,-0.58793 -11.84,-0.54223 -1.2958,0.015 -2.9211,-0.43336 -4.1511,0.10668 -1.2547,0.55094 -1.3932,2.17605 -1.8311,3.31555 -0.8327,2.16703 -1.8622,4.22519 -3.2533,6.08 -1.9288,2.57164 -4.322,4.76277 -6.8889,6.71109 -0.7794,0.59156 -1.93,0.67328 -2.5956,1.38668 -1.9044,2.04137 -3.0796,5.07703 -4.9866,7.26223 -1.6444,1.88425 -4.2367,4.05664 -5.0934,6.4 3.8764,1.41695 9.0847,-0.17793 13.12,0.009 1.405,0.065 3.6995,-0.31918 4.32,1.28 1.1159,2.87555 -0.077,7.24692 -0.16,10.2311 -0.2446,8.80781 -0.6254,17.52558 -1.5733,26.24 -0.7042,6.47363 -0.3693,13.04929 -1.0133,19.52 -1.9933,20.02742 -2.1171,40.16992 -4.1067,60.16 -0.8843,8.88406 0.6377,18.0009 -0.5956,26.88 -0.3074,2.21308 0.8673,6.2207 -0.7911,7.96445 -1.3652,1.43555 -6.2968,0.66129 -8.24,0.68446 -2.9026,0.0345 -5.7808,-0.50668 -8.64,-0.50668 -5.1222,0 -10.9954,0.24343 -16,-1.10223 1.9317,-7.18422 0.9678,-15.67109 1.1556,-23.04 0.1065,-4.18125 0.8347,-8.31692 1.0755,-12.48 0.3135,-5.41895 -0.1418,-10.89356 0.01,-16.32 0.7348,-26.45727 1.1836,-52.8443 1.92,-79.36 0.1313,-4.72649 -0.64,-9.37801 -0.64,-14.08 2.9318,-0.19707 5.9345,-1.96118 8.64,-3.01336 1.9103,-0.74282 3.3005,1.0539 5.12,0.0978 7.1588,-3.76168 10.7867,-11.51871 15.5111,-17.55555 0.7757,-0.99113 2.0316,-1.10117 3.0489,-1.75113 1.955,-1.24902 4.2344,-3.10461 5.6089,-4.97777 2.394,-3.26258 2.9881,-7.47473 5.1378,-10.62223 1.6197,-2.37145 4.7368,-5.0252 4.8266,-8.25777 0.044,-1.56786 -0.7243,-3.00922 -1.1022,-4.48 -0.9773,-3.80403 -1.8953,-7.60993 -2.2844,-11.52 -0.2127,-2.137 -0.3802,-4.92321 -0.1156,-7.04 0.2599,-2.07844 1.1006,-3.91227 0.6489,-6.08 -0.5095,-2.44583 -2.9022,-4.06954 -3.6089,-6.4 -0.6633,-2.18747 0.5385,-5.08739 -1.1911,-6.96891 -3.7182,-4.04496 -14.6176,-2.05613 -17.84,1.52891 -0.6704,-0.73973 -1.3843,-1.38301 -2.24,-1.9111 -8.1235,-5.01351 -9.5593,8.99578 -13.1466,12.44442 -3.0665,2.94789 -7.7045,-0.30602 -10.4534,2.34668 -3.319,3.20289 -2.2527,8.55168 -4.7111,12.08 -3.3836,4.85636 -8.0114,2.57195 -12.9689,3.66222 -1.7773,0.39086 -4.9705,2.23403 -6.72,1.67113 -2.3496,-0.75597 -3.9704,-3.54195 -6.4,-4.11558 -4.4725,-1.05602 -9.6633,0.16668 -13.7333,-2.44445 -10.2323,-6.56457 -17.2136,-17.6584 -26.5867,-25.20887 -3.5541,-2.86309 -7.363,-6.04641 -11.2,-8.48891 -1.9674,-1.25242 -3.8106,-2.71012 -5.76,-3.95555 -0.8381,-0.53546 -2.0818,-0.46601 -2.7733,-1.21777 -0.6418,-0.69773 -0.3998,-1.91051 -0.5511,-2.78223 -0.3714,-2.13918 -1.0879,-4.19668 -2.1778,-6.08 -4.2126,-7.2796 -9.5867,-13.71398 -14.4889,-20.48 -1.9136,-2.64121 -3.7052,-5.78285 -5.7156,-8.2489 -2.159,-2.64836 -6.5292,-5.05063 -9.4933,-6.7111 -2.1455,-1.20191 -4.2665,-2.43351 -6.4,-3.65332 -0.8749,-0.50023 -2.0456,-0.99902 -2.2489,-2.11558 -0.2442,-1.34121 1.3116,-3.81114 1.6534,-5.1911 1.0439,-4.2148 1.4222,-8.51367 1.8489,-12.8 0.5619,-5.64589 -1.198,-11.02129 -0.5867,-16.64 0.489,-4.49554 1.7239,-9.29113 3.52,-13.44 1.2665,-2.92574 3.4243,-5.80015 4.0533,-8.96 1.0546,-5.29758 2.1921,-11.86761 1.6534,-17.28 -0.3305,-3.32 -1.5734,-6.65812 -1.5734,-9.92 3.5974,0.0152 6.9958,1.82555 10.56,2.21332 3.8853,0.4227 7.6681,0.72696 11.2,-1.33332 2.978,-1.73707 3.3531,-5.57476 0.9511,-7.89332 -7.1255,-6.87797 -19.8292,-5.53101 -25.2089,-14.10668 -2.4923,-3.97285 -1.1523,-6.945 -0.7288,-11.2 0.5456,-5.481874 0.54,-12.491714 -1.7067,-17.599994 -3.1039,-7.057578 -11.5447,-5.688478 -15.8667,-10.880008 -3.2073,0.21563 -7.2967,-2.7955 -10.24,-4.03554 -8.5604,-3.606562 -16.7697,-8.038712 -25.28,-11.742232 -6.6963,-2.9141 -15.2359,-3.01652 -22.4,-3.43113 -16.8002,-0.97227 -34.6918,1.1125 -48.96,10.8889 -4.6966,3.218052 -9.8543,7.298752 -12.96,12.160002 -2.1211,3.32016 -2.5007,7.747468 -3.1644,11.520008 -1.2941,7.35523 -1.875,15.543664 -1.1289,23.039994 0.4269,4.28906 1.7206,8.86332 1.84,13.12 0.055,1.96071 -1.3681,3.10395 -2.0356,4.8 -1.3724,3.48742 -1.9961,7.49949 -2.3644,11.2 -0.4348,4.36832 -0.058,9.05739 1.6533,13.12 0.8506,2.01887 3.2617,4.59426 3.4045,6.72 0.1126,1.67805 -1.5237,2.7209 -2.4978,3.84 -1.0285,1.18168 -1.4466,2.61879 -1.6,4.16 -0.3311,3.32621 2.1013,4.88606 2.72,7.68 0.3425,1.54688 -1.2761,3.79336 -1.44,5.44 -0.1434,1.4402 0.6477,3.10957 0.1867,4.48 -0.5558,1.65211 -3.007,2.63379 -4.3734,3.52891 -3.1335,2.05277 -6.0843,4.59227 -8.6133,7.35109 -2.5644,2.79746 -5.1071,6.26207 -6.2756,9.92 -0.5704,1.78555 -0.2222,4.92809 -1.5111,6.27555 -2.468,2.5802 -6.8671,3.98172 -9.84,5.99113 -7.6711,5.18508 -16.1212,12.09926 -20.08,20.69332 -3.8103,8.27168 -3.7981,17.12106 -3.2889,25.92 0.637,11.00614 1.5024,21.97637 2.5956,32.96001 0.3207,3.22226 1.287,6.4139 1.5378,9.6 0.2581,3.27925 0.7672,6.62074 0.6755,9.92 -0.057,2.04961 -0.64,4.00992 -0.64,6.08 0,5.94699 0.3347,11.98367 -0.01,17.92 -0.2714,4.68996 -0.9072,9.34402 -0.6222,14.08 0.2569,4.26851 1.6803,8.29246 2.4267,12.48 0.8047,4.51492 0.9156,9.22285 1.3777,13.76 1.2298,12.07465 2.3082,26.66074 8.4712,37.44 7.8331,13.70035 22.6226,25.17523 38.2755,28.4 3.4777,0.71648 7.3244,1.58125 10.88,1.68 3.644,0.10121 7.989,-0.53039 11.52,0.41777 2.3016,0.61801 4.5514,2.33824 6.72,3.34223 2.7062,1.25285 5.6557,2.04289 8.32,3.3689 3.1024,1.54399 5.9106,3.63344 8.96,5.2711 4.2759,2.29633 8.5034,4.80472 12.8,7.10222 4.7128,2.52 10.0548,4.75231 14.08,8.33778 m -117.44,-392.640004 c 1.2783,0 2.7122,6.25851 2.88,7.68 0.8236,6.976094 1.6102,13.805854 0.4445,20.799994 -0.2866,1.71965 -0.3665,5.18446 -2.0445,6.08 0.5115,1.99571 -0.9652,4.31274 -1.8489,6.08 -2.6301,5.26028 -5.8191,10.23563 -9.2,15.04 -4.4374,6.30586 -9.943,15.98039 -18.3911,16 -2.3025,0.005 -4.6327,0.0826 -6.4,-1.6089 -5.8692,-5.61762 -6.0525,-14.85278 -10.4533,-21.4311 -3.1336,-4.68418 -7.6434,-8.4291 -10.3111,-13.44 -2.0323,-3.81722 -3.267,-8.57746 -4,-12.8 -0.3682,-2.12047 -1.0869,-4.22383 -0.7645,-6.4 0.3097,-2.09043 1.285,-3.33445 2.1422,-5.146674 2.8146,-5.95024 5.1735,-10.23067 10.1423,-14.648868 1.7143,-1.52434 4.7718,-4.78582 7.1644,-4.52446 0.3042,-1.51386 1.9862,-1.94101 3.1733,-2.74667 2.5061,-1.70075 4.485,-4.08368 6.72,-6.08887 4.1336,-3.708522 9.5762,-10.390312 15.7067,-10.035552 3.5721,0.20672 5.6841,3.35574 6.9067,6.39109 1.945,4.828952 3.7957,9.502542 5.5733,14.391102 0.8065,2.21769 2.5072,3.89582 2.56,6.408908 m 167.0401,19.840044 c 1.0062,-4.60543 -0.09,-9.521674 1.6089,-14.079994 1.1113,-2.98192 2.8877,-5.0886 5.0489,-1.6 4.4929,7.25246 4.5422,17.973824 4.5422,26.239994 0,7.30184 -0.6498,14.47149 -1.0045,21.73332 -0.1093,2.23684 0.252,6.79305 -1.12,8.63114 -0.7856,1.05257 -2.7948,0.71046 -3.9555,0.67554 -5.1752,-0.15578 -8.7122,-5.88164 -10.8622,-9.92 -1.8998,-3.56816 -4.0582,-8.42566 -4.4711,-12.48 -0.5334,-5.23726 0.9119,-10.1614 -0.8089,-15.36 -4.2304,-12.779684 -12.7469,-21.906484 -21.9378,-31.360002 -3.1506,-3.24066 -5.7082,-7.51429 -7.04,-11.840002 -0.5239,-1.7016 -0.8441,-4.56867 1.28,-5.28 3.9615,-1.32668 6.3406,5.88754 8.9689,7.288912 1.6351,0.8718 3.9823,0.37246 5.7511,0.62219 5.5208,0.77953 13.5365,2.71301 16.5066,7.9289 1.4666,2.57551 0.9393,5.18391 1.1023,8.000008 0.259,4.47515 0.5573,9.49109 1.9111,13.759994 0.7991,2.51985 1.9345,5.84606 4.48,7.04 m -296.0001,13.12 v -0.64 c 5.8273,1.56715 12.6113,-2.45012 16.96,-5.95554 1.7386,-1.40145 3.8954,-3.0004 4.48,-5.24446 l 0.96,0.32 c 0.7792,-2.80976 2.2935,-5.76035 2.9334,-8.64 1.2417,-5.587304 0.5463,-11.419334 -1.6267,-16.657772 -1.1539,-2.78152 -5.4263,-5.57605 -5.7867,-8.30223 -1.4876,-0.2625 -2.954,-1.82949 -3.52,-3.2 -1.5579,-0.0723 -3.2154,-1.1325 -3.84,-2.56 -2.6941,0.39622 -5.9321,-1.778242 -8.64,-2.204452 -5.2988,-0.83402 -12.0639,1.10516 -16.32,4.257782 -8.5679,6.34652 -10.8819,16.324178 -9.9467,26.426678 0.3343,3.610424 0.5388,7.540934 2.4978,10.755544 4.7246,7.75254 13.6419,10.05812 21.8489,11.64445 m 409.6001,12.8 c 2.6215,0.41856 5.4173,2.40391 8,3.30668 5.1065,1.78492 11.6743,2.37918 16.96,1.05778 6.8416,-1.7104 12.785,-5.1102 17.7955,-10.10668 3.9043,-3.89325 6.9559,-8.06168 8.5423,-13.45778 1.3643,-4.64078 1.7039,-9.29961 0.9333,-14.07999 -0.767,-4.758014 -2.7463,-9.666184 -5.7689,-13.440004 -4.928,-6.152858 -11.2705,-11.460118 -19.2622,-12.995548 -21.9405,-4.21539 -44.017,14.707298 -40.2489,37.315542 1.0181,6.10895 3.3023,12.05781 7.2889,16.86223 1.5659,1.88723 4.8606,3.3773 5.76,5.53777 m 69.12,-4.8 2.88,3.2 2.24,1.92 0.96,-0.32 3.84,3.2 c 1.5477,-0.30953 4.566,1.64301 6.4,2.56 1.1169,0.55848 3.2811,-0.37972 4.8,0 7.6073,1.90184 15.6753,-0.79765 21.76,-3.84 1.2266,-0.61332 2.0641,-1.70808 3.2,-2.56 1.4099,-1.05746 3.0342,-2.1157 4.48,-3.2 5.0286,-3.77144 7.2944,-10.93738 8.64,-16.32 0.5998,-2.39918 1.6677,-5.8091 0.96,-8.64 -0.5184,-2.07344 -1.4139,-4.05558 -1.92,-6.079994 -0.5521,-2.20852 -1.1412,-5.26641 -2.56,-7.04 -2.1699,-2.71227 -4.9274,-6.698288 -8.32,-8.960008 -10.0321,-6.68808 -23.1552,-8.42238 -34.24,-2.88 -6.0406,3.02032 -10.5346,7.001918 -14.4,12.800008 -1.2651,1.89761 -1.6866,4.18613 -2.24,6.4 -1.5698,6.279134 -2.5984,12.646094 -0.96,19.199994 0.4768,1.90727 1.3597,4.61274 2.24,6.08 0.2173,0.36227 0.068,1.27547 0.32,1.6 0.8309,1.06832 2.1475,1.96989 1.92,2.88 m -299.84,-11.52 c -1.146,-3.13484 -0.354,-7.91109 -0.027,-11.2 0.7253,-7.287964 1.2422,-14.148004 3.76,-21.120002 1.0947,-3.03148 4.6102,-9.0057 8.7378,-7.4489 3.4254,1.29199 1.1713,7.09668 0.2666,9.368908 -2.7421,6.88734 -6.9413,12.99464 -9.7777,19.839994 -1.3084,3.15762 -0.9011,7.87996 -2.96,10.56 m -104.32,-13.76 c 0.7013,2.38461 0.076,4.82617 0.4622,7.38668 0.9347,6.20414 4.5137,12.27195 9.2088,16.53332 2.3467,2.12981 5.4241,3.72297 8.249,5.12891 0.9293,0.46254 1.829,0.30015 2.56,1.03109 2.1582,-0.18133 4.3215,0.54887 6.4,0.46223 6.6651,-0.27777 12.9869,-3.06356 17.2,-8.46223 5.9782,-7.66062 8.7232,-19.45422 5.4133,-28.799994 -4.0302,-11.379258 -19.4909,-19.519338 -30.9333,-15.466678 -5.2759,1.86859 -11.0909,5.137098 -13.7067,10.355578 -1.1989,2.39184 -2.3866,4.80496 -3.1823,7.3511 -0.5009,1.602964 -0.3503,3.263864 -1.671,4.479994 m -19.2001,-18.240002 0.32,0.32001 -0.32,-0.32001 m 383.3601,4.480008 c 1.6219,-0.14993 2.8697,1.32191 3.8844,2.4889 2.6595,3.05875 4.1186,7.39735 4.7822,11.271094 0.2545,1.48563 0.5323,5.08582 -0.9866,5.76 0.7023,5.06481 -4.8693,11.13875 -8.96,13.29778 -1.7981,0.94898 -3.3439,1.95066 -5.44,1.42222 -0.4936,0.87942 -1.8699,1.14344 -2.88,1.25332 -2.3525,0.2559 -8.3739,0.42492 -8.96,-2.53332 -1.6648,0.39871 -2.9596,-1.02633 -4.0356,-2.21332 -2.1882,-2.41394 -3.8554,-4.89551 -4.8266,-8.02668 -3.0339,-9.78105 0.994,-19.578044 10.4622,-24.071094 4.0788,-1.93555 8.9206,-2.39508 13.12,-0.79113 1.353,0.5168 3.1707,0.75765 3.84,2.14223 m 65.2711,-0.55114 c 3.4025,-0.35113 7.0447,0.15797 10.2489,1.33336 1.8161,0.66621 3.4703,2.26567 4.8978,3.50223 12.0529,10.440854 3.5319,32.513324 -11.9378,34.088864 -3.0217,0.30774 -6.7985,0.25125 -9.6,-1.01332 -16.9285,-7.64144 -11.3907,-36.076054 6.3911,-37.911134 m -454.0712,5.74223 c 3.9556,-0.55852 9.093,2.14391 8.6134,6.648904 -0.4139,3.88723 -4.2438,7.0752 -7.9734,7.66223 -4.3296,0.68148 -9.6714,-3.88606 -8.5422,-8.62223 0.8664,-3.633744 4.5416,-5.214414 7.9022,-5.688904 m -2.24,24.568904 v -0.64 c 1.7307,0.44418 5.3388,0.47348 5.76,2.56 1.8252,0.0307 3.4974,0.77746 4.1601,2.56 1.4907,-0.28812 3.0381,1.18684 4.231,2.09778 3.6872,2.81546 6.8702,6.86765 9.8934,10.4089 1.1361,1.33071 3.0976,2.94684 2.8356,4.77332 l 0.96,-0.32 c 1.956,5.00578 3.9558,9.99035 5.8844,15.04 1.8913,4.95188 3.6517,9.55321 0.3645,14.4 -5.5167,8.13383 -18.3318,11.68743 -27.689,12.48891 -2.0156,0.17266 -8.1848,1.40316 -9.28,-0.64891 -2.2666,0.60957 -3.8734,-0.23691 -6.08,-0.5689 -4.0105,-0.60344 -7.6569,-1.22797 -11.52,-2.48887 -7.6666,-2.50234 -14.8395,-6.62039 -21.12,-11.66223 -2.6939,-2.16261 -6.0046,-5.34008 -6.3733,-8.96 -1.522,-14.94359 12.7846,-23.72211 22.6933,-32.07109 4.141,-3.48918 12.195,-8.62156 17.92,-6.64891 v -0.64 l 7.36,0.32 m -29.76,40.64 0.64,-0.32 c 0.5777,4.74149 6.1721,5.60524 7.68,9.28 3.8077,0.20805 7.5628,4.09067 11.52,4.6311 12.2646,1.67492 24.4028,-2.28657 29.5734,-14.2311 1.2256,-2.83136 2.0131,-5.49914 1.9111,-8.64 -0.139,-4.27933 -1.0216,-7.85445 -2.7555,-11.7689 -0.692,-1.56215 -2.7028,-2.87227 -2.8089,-4.5511 l -1.6,-1.92 -0.96,0.32 -3.52,-3.84 c -1.9659,-0.24781 -4.2239,-1.94926 -6.0801,-2.8 -2.8026,-1.28453 -6.6041,-1.82324 -9.6711,-1.6089 -9.5367,0.66648 -20.6589,5.37175 -24.4444,14.9689 -2.7666,7.01391 -1.497,13.63727 0.5155,20.48 m 611.8401,71.04 c 3.2108,0.16192 6.3379,0.32 9.6,0.32 1.4036,0 3.2325,-0.28968 4.471,0.52446 2.1327,1.40199 2.7957,5.4684 4.7111,7.37777 1.9469,1.94078 5.3706,3.06172 7.7778,4.33777 5.0923,2.69934 10.0107,5.79602 15.04,8.61332 1.9473,1.09083 6.1325,3.92625 8.32,3.46668 0.7039,1.68274 2.8722,1.64004 4.48,1.93778 3.7235,0.68949 6.6739,1.79426 10.56,1.90222 1.3661,0.038 4.0375,0.7952 4.6933,-0.9689 0.8881,-2.38875 -0.2366,-6.11012 -0.2133,-8.6311 0.067,-7.22961 -0.057,-14.2125 -0.5421,-21.44 -0.7161,-10.66488 -0.022,-21.35058 -0.2934,-32 -0.265,-10.40215 -0.7333,-20.96066 -0.4445,-31.36 0.2043,-7.35551 0.64,-14.67656 0.64,-22.08 0,-2.10621 0.83,-6.4709 -0.3021,-8.28445 -0.6254,-1.00176 -1.9543,-0.48848 -2.8979,-0.33777 -2.7347,0.43679 -5.2202,1.47804 -7.68,2.70222 -10.1184,5.03574 -20.1873,10.33594 -30.4,15.18223 -3.3782,1.60309 -6.9382,2.86851 -9.1732,6.09777 -1.52,2.1961 -1.0154,6.29 -3.6268,7.77778 -2.7293,1.55496 -7.825,-0.0802 -10.8799,0.19554 -0.9492,0.0857 -2.6048,-0.33734 -3.3156,0.45332 -0.9731,1.08246 -0.4552,3.66286 -0.5333,5.01336 -0.2446,4.22805 -0.793,8.55512 -0.5867,12.8 0.7485,15.39938 -1.0229,30.98996 0.5956,46.4 m -244.16,-80.64 -15.36,-8 -0.32,23.36 16,-4.16 c 0,7.58672 0.9066,15.15594 0.9066,22.72 0,3.4952 -0.4619,7.03 -0.2577,10.56 0.4832,8.35102 1.0868,16.91422 0.6222,25.28 -0.3124,5.62364 -1.9925,12.02196 -1.0756,17.6 0.2079,1.26481 -0.3342,3.38192 0.5512,4.4 1.0908,1.2543 2.6955,0.32926 4.0533,0.42668 3.0326,0.21762 7.9495,-0.41382 10.56,1.25332 1.3606,-0.75855 3.0089,-0.24027 4.5066,-0.21332 2.6382,0.0475 6.6445,-0.91882 8.9334,0.53332 h 0.32 c 1.9974,-1.09703 5.275,-0.14507 7.4844,-0.0533 4.6156,0.19172 9.3721,1.47926 13.9556,1.18219 3.1436,-0.20375 8.474,-0.93836 11.2,0.79113 l 5.12,-0.15113 14.4,0.40891 36.8,1.52 17.92,0.39113 7.36,0.71109 h 0.32 l 0.32,-0.64 h 0.32 l 3.84,0.96 h 0.32 c 1.8229,-1.0107 4.219,-0.2273 6.08,0.32 -10e-5,-1.05375 0.4713,-0.20125 0.64,0.32 l 4.8978,-0.68445 0.2311,-5.07555 0.089,-11.84 -0.08,-36.16 0.9422,-35.84 -0.2934,-9.6 -0.5511,-3.48445 -5.5555,-0.60445 -17.92,-0.0711 -27.84,-1.6 -14.4,0.17778 -8.96,-0.81778 -16.96,-0.19554 -19.52,-0.49778 -13.12,-0.90668 -14.4,-0.0267 -15.04,-0.39109 -6.64,-0.30223 -0.4267,2.32 0.027,6.08 m -124.16,31.04 v 0.64 c -1.5223,0.55649 -3.216,0.33875 -4.8,0.0711 -5.4974,-0.92899 -9.4712,-4.85969 -11.3955,-9.9911 -1.0084,-2.6889 -1.4226,-5.45101 -2.88,-8 -1.5175,-2.65398 -3.9485,-4.98707 -6.2045,-7.01332 -2.6023,-2.33722 -5.8847,-4.68086 -8.96,-6.34668 -1.8365,-0.99476 -4.5367,-1.90683 -5.76,-3.6 8.7385,0.44067 19.7644,6.98043 24.1956,14.4 1.5819,2.64887 1.4979,5.85215 2.7111,8.64 2.5343,5.82367 7.5216,8.85891 13.0933,11.2 m -78.4,-10.24 c -1.3439,-1.96691 -4.4566,-2.47449 -6.72,-2.24 -0.551,-1.87324 1.6652,-2.90425 1.8933,-4.8 0.295,-2.45074 -2.5466,-4.66097 -2.08,-6.72 0.3731,-1.64605 2.8954,-2.65961 4.3467,-2.99554 5.1972,-1.20301 9.6129,1.16851 14.4,2.67554 2.2223,0.69957 4.3768,1.41 6.72,1.50223 1.1617,0.0457 2.3618,-0.50828 3.52,-0.39109 0.7951,0.0805 1.2959,0.63488 1.2356,1.44886 -0.1338,1.80274 -2.7832,3.55473 -4.1156,4.48 -4.2856,2.97606 -9.2306,4.8134 -13.44,7.90223 -3.669,2.6923 -4.9378,5.64234 -6.3644,9.69777 -0.3063,0.87047 -0.9785,1.46625 -1.9556,1.17336 -1.4647,-0.43906 -1.9895,-2.11746 -2.3644,-3.41336 -1.2324,-4.25894 0.3692,-7.43953 4.9244,-8.32 m 408.64,7.68 v 0.32 l 0.4711,3.2 -0.1511,10.88 v 37.44 c 2.6173,-0.49484 5.6367,-0.72523 8.32,-0.67554 0.8715,0.0161 2.2994,0.76875 2.9689,-0.0711 0.9582,-1.20203 0.2767,-3.04558 0.3289,-4.37336 0.1525,-3.87582 0.01,-7.66464 -0.098,-11.52 -0.3127,-11.26214 -0.2168,-22.69304 0.3289,-33.92 0.1386,-2.84914 0.055,-5.80113 0.3378,-8.64 0.1649,-1.65711 0.9763,-4.48754 0.4444,-6.07109 -0.6912,-2.05816 -7.0851,-1.07555 -8.7911,-1.00445 -0.8779,0.0366 -1.9948,-0.59868 -2.72,0.14218 -0.9181,0.93801 -0.8079,3.14813 -0.7555,4.34668 0.1199,2.74516 0.8165,7.58082 -0.6845,9.94668 m 17.6,52.8 8,-0.19554 2.24,-0.44446 c 0.9539,0.34868 2.94,0.84567 3.7333,-0.0445 0.7592,-0.85168 0.3754,-2.43473 0.4356,-3.47555 0.1669,-2.88343 0.3111,-5.72882 0.3111,-8.64 0,-13.365 0.609,-26.65957 0.64,-40 0.01,-3.23925 0.2303,-6.37992 0.4711,-9.6 0.084,-1.12297 0.4116,-3.03906 -0.3822,-4 -0.5884,-0.7123 -1.8464,-0.43425 -2.6489,-0.50668 -3.0539,-0.27566 -6.1907,0.22516 -9.28,0.0178 -1.1293,-0.0758 -2.7316,-1.13875 -3.36,0.35558 -0.4435,1.05485 -0.032,2.38582 -0.1955,3.49332 -0.5377,3.6295 -0.202,7.4918 -0.3823,11.2 -0.5675,11.67618 -0.2222,23.48629 -0.2222,35.2 0,4.06231 -0.099,8.13457 0.2934,12.16 0.1482,1.5209 -0.1816,3.03489 0.3466,4.48 m -180.4799,-65.27997 h 0.32 c 1.1161,-1.03472 3.3319,-0.31293 4.8,-0.27554 4.3844,0.11168 9.1604,0.43945 13.44,1.44 1.2143,0.2839 4.8,1.05754 4.8,2.35554 1.978,0.10805 3.403,1.23344 4.8,2.56 v -0.64 c 3.5349,2.2427 4.9916,6.12297 6.2222,9.92 3.3644,10.38172 2.0784,23.25328 -6.8622,30.64 -7.1344,5.89442 -14.666,5.27848 -23.36,5.52 -3.2542,0.0904 -6.673,0.0235 -9.92,0.34668 -1.0864,0.10813 -3.0667,0.80473 -4.0533,0.0622 -0.9875,-0.74324 -0.1412,-2.44391 0.053,-3.36 0.6499,-3.06023 1.2838,-6.37844 1.4845,-9.50223 0.7603,-11.83297 -0.099,-23.74258 0.6933,-35.54668 0.08,-1.1891 0.025,-3.77625 0.8178,-4.69336 1.0721,-1.24074 5.971,0.15938 6.7644,1.17336 m 143.36,-0.96 c -1.435,7.58946 -0.4622,15.67614 -0.4622,23.36 0,9.05403 -0.934,18.15551 0.071,27.2 0.3646,3.28102 0.071,6.892 0.071,10.24 0,0.97325 -0.1962,2.96559 0.7467,3.60891 0.6897,0.47051 1.9808,-0.0684 2.7467,-0.13336 2.7512,-0.23336 5.5974,-0.45301 8.3466,-0.58664 1.0036,-0.0488 2.6324,0.68301 3.2889,-0.36445 0.7493,-1.19539 -0.2534,-3.47035 -0.3822,-4.76446 -0.3539,-3.55597 -0.027,-7.30562 -0.027,-10.88 0,-12.47437 1.8981,-25.38691 0.6666,-37.76 -0.3391,-3.40683 1.1759,-7.27015 -0.027,-10.56 l -15.04,0.64 m -5.44,46.08 c -1.8586,-2.92945 -0.32,-8.76718 -0.32,-12.16 0,-7.00289 -0.3445,-14.14797 0.027,-21.12 0.2171,-4.07949 1.0488,-8.80058 -0.027,-12.8 -3.2229,0.60934 -6.3334,1.11274 -9.6,1.32446 -0.9427,0.0611 -2.9978,-0.52707 -3.68,0.11554 -1.003,0.94492 -0.2998,2.8636 -0.1866,4 0.3166,3.18117 0.195,6.7275 0.018,9.92 -0.6461,11.63254 -1.1284,23.7859 -0.5867,35.49332 0.1102,2.37981 0.1281,5.04442 -0.089,7.38668 -0.1065,1.14957 -0.7036,2.68508 -0.044,3.81332 0.7279,1.24582 1.8989,0.50711 2.9689,0.37336 2.5326,-0.31656 5.1334,-0.26211 7.68,-0.51558 0.9863,-0.0982 2.2578,0.22383 2.9956,-0.62219 0.8929,-1.02391 0.5221,-3.26379 0.4444,-4.52445 -0.179,-2.90672 -1.1571,-8.19879 0.4,-10.68446 m -69.76,-35.84 h -0.32 c -0.6561,1.10864 -2.1968,0.10188 -2.88,-0.64 h -0.32 c -0.8881,0.86461 -2.0054,0.28621 -3.2,0.43555 -3.0136,0.37672 -6.7301,0.77168 -8.32,3.72445 l -0.96,-0.32 -0.2933,3.2 1.8933,4.16 c 1.7993,0.12098 2.8911,1.4041 4.48,2.10664 2.7716,1.22543 5.5541,2.30711 8.32,3.55559 1.1653,0.52598 3.2,1.36227 3.2,2.65777 3.676,-0.52519 6.8465,6.212 7.0311,9.28 0.4068,6.75989 -4.3446,13.79707 -10.5511,16.12446 -1.6992,0.63718 -7.0995,2.95379 -8.32,0.83554 -4.8123,1.75914 -10.9508,-3.06593 -14.4,-5.76 -0.8118,-0.63414 -4.1528,-3.45089 -3.4044,-4.37336 0.7362,-0.90757 4.4854,-2.82156 5.6444,-2.63109 1.765,0.29004 3.2221,2.32691 4.8,3.13781 5.9489,3.05703 19.6033,4.81133 18.8711,-5.73336 -0.143,-2.06011 -2.2084,-2.95082 -2.8711,-4.8 -2.5893,0.25024 -6.1226,-2.67429 -8.3466,-3.85777 -5.9364,-3.15898 -14.1263,-6.15793 -12.7023,-14.70223 0.6723,-4.03375 3.3986,-7.89941 6.6489,-10.28445 1.295,-0.95023 2.6005,-2.39594 4.16,-1.55555 0.7573,-1.92355 3.6525,-1.60066 5.44,-1.8489 4.5981,-0.6386 9.5073,0.72543 13.44,3.01336 1.0771,0.6266 3.3289,2.11402 3.7333,3.31554 0.6497,1.93055 -3.6264,5.33118 -5.3333,5.4311 -1.4268,0.0835 -4.8648,-3.20176 -5.44,-4.4711 m -70.4,34.88 c 7.089,1.34032 17.2421,1.23157 23.36,-3.03109 8.0323,-5.59652 10.5242,-20.73754 3.76,-28.25781 -4.4978,-5.00055 -12.8244,-5.81285 -19.12,-6.49778 -1.2243,-0.1332 -5.7373,-1.50183 -6.4889,-0.50668 -0.5914,0.78313 -0.16,2.38141 -0.16,3.28891 0,2.38402 -0.071,4.77676 -0.071,7.16445 0,6.09188 0.5764,12.50071 -0.027,18.56 -0.3067,3.08184 -1.099,6.21953 -1.2533,9.28 m -129.6,58.24 c -1.263,4.62532 -1.1044,9.36813 -1.5734,14.08 -0.1238,1.24403 0.6827,4.53075 -1.3066,4.44446 -2.5554,-0.11086 -5.1353,-4.24153 -6.5334,-6.04446 -3.7329,-4.81378 -6.8235,-10.46636 -11.0666,-14.84445 -1.5184,-1.5666 -3.8208,-3.63496 -6.08,-3.96445 -6.152,-0.89715 -5.44,8.8314 -5.44,12.4089 0,1.1843 0.6143,4.72891 -1.28,4.72891 -1.4837,0 -2.452,-2.0868 -3.1467,-3.12891 -2.6087,-3.91304 -3.8702,-8.4821 -6.2578,-12.48 -4.9856,-8.34808 -14.2692,-13.63097 -23.5555,-15.86668 -8.4543,-2.03539 -17.0466,-2.03238 -25.6,-0.84441 -2.8565,0.39672 -5.9352,0.25684 -8.6311,1.50223 -1.6035,0.7407 -2.2618,3.60832 -3.4134,4.94218 -2.1546,2.49555 -5.8854,4.14102 -9.0755,4.70223 -5.8784,1.03414 -11.7262,0.54914 -17.6,-0.26664 -3.768,-0.52332 -7.341,-1.56633 -11.2,-1.18223 -3.1386,0.31239 -6.89,1.32032 -9.209,3.56442 -1.0505,1.01668 -2.461,4.52652 -3.671,4.93336 -0.9464,0.3182 -2.0302,-0.67641 -2.8,-1.08446 -1.5959,-0.84593 -3.6297,-1.77636 -5.44,-1.97332 -2.1305,-0.23175 -5.0538,-0.30535 -7.04,0.58668 -1.7161,0.77067 -3.0271,2.28836 -4.8,2.90664 -1.0477,-2.86597 -0.65,-6.30273 -0.3467,-9.28 1.4814,-14.54558 12.6213,-22.67234 25.9467,-26.43554 5.0442,-1.42453 10.8854,-1.53157 15.68,-3.32446 -5.8001,-5.21277 -3.5891,-10.60746 1.6,-15.35109 7.4846,-6.84219 18.4386,-9.7168 28.16,-11.40445 5.7018,-0.98989 11.5078,-0.76446 17.28,-0.76446 3.0026,0 6.9241,0.48407 9.2,2.69332 3.0295,2.9409 -0.5562,5.28801 -0.3556,8.18668 0.1646,2.37754 6.5529,3.94594 8.4356,4.13332 6.4023,0.63723 12.7164,-0.18964 18.88,-2.04441 6.9813,-2.10086 14.5613,-4.49836 21.76,-1.31555 2.0414,0.90262 3.5471,2.61239 4.3555,4.66664 0.4093,1.04016 0.219,2.9409 1.4311,3.41336 2.2062,0.85989 5.5773,0.43293 7.9734,0.8711 9.1951,1.68152 18.8888,3.91847 26.24,10.04445 1.8833,1.56949 4.472,3.54828 5.5289,5.83109 0.9787,2.11399 -2.4303,6.63196 -3.2623,8.64 -2.4848,5.99657 -4.8266,13.27723 -4.8266,19.84 0,1.6525 0.3759,7.80211 -1.04,8.72891 -2.6207,1.71531 -6.1166,-3.10473 -7.92,-4.24891 m -220.4802,-61.43997 c -10.0153,-1.89367 -20.8209,-0.0299 -30.7201,1.25332 -34.9899,4.53571 -67.6183,22.23219 -89.1466,50.58668 -13.4387,17.69977 -21.6199,38.80473 -29.0045,59.52001 -3.7349,10.47718 -6.1977,21.16863 -8.3289,32 -1.5944,8.10328 -3.2855,16.91964 -2.4533,25.28 1.0521,10.56988 4.2189,20.74019 6.6222,31.04 10.4267,44.68562 33.4909,87.22656 69.8311,116.08 26.4329,20.98723 57.9301,33.15848 89.9201,42.48891 12.8791,3.7564 27.6161,3.72175 40.96,3.35109 32.5215,-0.9034 66.9447,-5.41547 95.36,-22.97777 3.8605,-2.38602 8.2016,-4.60957 11.5644,-7.70668 9.975,-9.18664 14.8646,-20.41969 16.3023,-33.63555 0.3526,-3.24152 0.6133,-6.28777 0.6133,-9.6 0,-1.11336 0.3067,-2.76719 -0.1067,-3.81336 -0.3163,-0.80051 -1.1262,-0.91152 -1.7067,-0.30219 -1.2869,1.35078 -1.9373,3.8182 -3.0399,5.39555 -5.4845,7.84547 -15.2052,12.08168 -23.6267,16 -22.8551,10.63391 -48.625,12.62051 -73.28,9.25336 -10.5517,-1.4411 -20.9247,-4.86977 -31.04,-8.12445 -23.8504,-7.67407 -46.765,-22.91876 -65.6001,-39.13782 -10.0088,-8.61867 -19.542,-17.06785 -27.2355,-27.91109 -11.0115,-15.51961 -19.1706,-32.85067 -26.6578,-50.24 -8.3499,-19.39297 -15.8149,-41.66282 -14.5778,-63.04 1.0667,-18.43176 6.8872,-35.37438 15.12,-51.84001 10.0279,-20.05582 26.7303,-38.29765 45.0311,-51.0489 8.3684,-5.83071 16.9924,-11.45078 25.6268,-16.84442 2.4959,-1.55914 8.4306,-3.2814 9.5733,-6.02668 m 401.92,3.84 0.32,0.32 -0.32,-0.32 m -417.92,3.84 c -4.0453,0.22102 -8.7952,3.31266 -12.4801,4.93336 -1.3188,0.58004 -2.9691,2.08801 -4.48,2.03555 -0.9763,-0.0339 -1.8279,-1.0243 -2.56,-1.57336 -1.7874,-1.34059 -3.678,-2.65324 -5.76,-3.47555 4.5768,-3.75839 12.9657,-3.84 18.56,-3.84 1.8906,0 5.841,-0.0607 6.7201,1.92 m -31.0401,0 v 0.32 c -1.3908,0.67789 -6.6025,3.51344 -7.36,1.92 l 7.36,-2.24 m 9.92,8.96 v 0.32 l -10.88,6.16 -4.16,2.48 c -0.2259,-4.135 -7.177,-5.73918 -10.56,-6.72 v -0.64 l 10.88,-4.88 4.16,-1.68 4.16,1.9911 6.4,2.9689 m -22.08,-4.8 c -0.7624,2.04215 -4.6796,3.09993 -6.72,3.52 0.3704,-1.98425 4.8496,-3.29211 6.72,-3.52 m -11.84,5.44 c -0.1563,2.17993 -2.4946,3.02231 -4.16,4.08891 -0.5545,0.35512 -1.7085,1.35715 -2.4,0.8 -0.8808,-0.70973 0.2466,-1.60918 0.8,-2.00891 1.7496,-1.26355 3.545,-2.84273 5.76,-2.88 m 33.28,2.88 -4.16,3.84 c -0.3505,-1.85421 2.4219,-3.71586 4.16,-3.84 m -18.24,7.68 c -0.7051,1.88864 -3.2114,2.85114 -4.8,3.9911 -3.5383,2.5391 -7.1162,5.45918 -10.24,8.4889 -0.8711,0.84493 -3.6289,3.94668 -4.8,3.94668 -0.9483,0 -1.8804,-1.3532 -2.56,-1.90222 -1.9344,-1.56278 -3.932,-3.26653 -6.08,-4.52446 -0.8904,-0.52148 -2.5558,-1.24437 -2.8889,-2.32 -0.2553,-0.82437 0.7724,-1.49808 1.3156,-1.92 1.5903,-1.23503 3.3076,-2.36441 4.8444,-3.65332 2.486,-2.085 6.9662,-6.1016 10.1778,-6.76445 1.5534,-0.32059 3.3501,0.45524 4.7911,0.91555 3.448,1.10144 6.8829,2.34578 10.24,3.74222 m -28.4889,-3.36886 c 1.2427,0.0773 1.2893,1.28508 0.6134,2.06218 -1.2386,1.42399 -6.3792,5.16485 -8.2756,4.74668 -1.7043,-0.37582 -0.4704,-1.80253 0.3111,-2.4089 1.5615,-1.21153 5.323,-4.52613 7.3511,-4.39996 m 38.4089,1.12886 c 0.6025,1.74848 -2.5667,5.03887 -4.4711,4.91555 -1.9511,-0.12637 0.1315,-2.10168 0.6311,-2.48887 0.4412,-0.34191 0.8453,-0.7264 1.28,-1.07558 0.8075,-0.64856 1.5647,-1.09598 2.56,-1.3511 m 300.8001,6.4 c 0.8621,2.21832 3.2714,3.54489 4.6489,5.44 2.6808,3.68813 5.0772,7.72223 7.6177,11.52 1.0855,1.62262 2.4717,4.86774 4.3823,5.6 2.2061,0.84555 7.4554,0.72297 9.5911,-0.18668 1.9662,-0.83746 2.6618,-4.02816 4.8,-2.53332 h 0.32 c 1.7611,-0.8139 4.7112,-0.61656 6.4,0.32 h 0.32 7.04 l 14.4,2.00891 7.68,1.19109 c 0.9776,-0.68628 3.1016,-0.32105 3.84,0.64 h 4.8 v 0.64 l 12.48,0.26668 6.08,0.69332 h 0.32 c 1.0512,-0.6625 1.5088,-0.6625 2.56,0 h 0.32 c 1.3378,-0.84312 2.0612,-0.18062 3.52,-0.13335 2.9933,0.097 7.7003,-0.65661 10.24,1.09335 h 0.32 c 2.3592,-1.0507 9.0046,-0.58941 11.52,0.32 v -0.64 l 9.28,0.8 3.2,0.48 12.48,-0.39109 4.16,-0.24891 2.88,0.96 0.32,-0.96 c 1.4261,0.88083 2.8788,0.34883 4.48,0.47114 3.5692,0.27265 6.9708,0.58957 10.56,0.63109 11.0604,0.12793 22.2775,1.22414 33.28,1.17332 3.2768,-0.0151 6.588,0.41492 9.92,0.33778 1.07,-0.0248 2.8456,0.34226 3.8134,-0.11555 2.7104,-1.28231 -0.3508,-7.59684 -0.8,-9.53778 -0.2063,-0.89101 0.1764,-2.24293 -0.809,-2.72 -2.6425,-1.27945 -6.4101,-0.72125 -9.2444,-0.8 -5.4457,-0.15128 -10.8884,-0.36078 -16.32,-0.37332 -11.4542,-0.0264 -23.1118,-0.55523 -34.56,-1.21777 -11.5913,-0.67082 -23.2917,-0.10887 -34.88,-1.26223 -6.8944,-0.68617 -13.9805,-0.23921 -20.8,-1.36003 -1.9443,-0.31958 -5.2392,0.57417 -6.72,-0.90665 -4.5492,0.86012 -9.5448,-0.0585 -14.08,-0.48886 -5.3874,-0.51125 -10.9001,-0.13824 -16.32,-0.64 -1.9863,-0.18391 -4.1476,-0.59946 -6.08,-0.68449 -1.4099,-0.062 -2.5567,0.47828 -3.52,-0.74665 -1.5027,0.41668 -2.4774,0.55024 -3.84,-0.32 h -4.16 l -11.2,-0.63109 -5.1111,0.009 -2.1511,-3.5111 -4.2578,-2.44445 -6.08,-0.48891 -16.64,-1.25332 m -309.1201,1.92 c -0.9025,0.74676 -1.7062,1.72012 -2.56,2.56 -0.513,0.50469 -1.0278,0.99692 -1.5733,1.46668 -0.7207,0.62071 -3.8248,2.31223 -3.0133,-0.17777 0.6362,-1.95262 5.8583,-7.18113 7.1466,-3.84891 m 301.7601,0 0.96,2.56 c -4.1792,3.24817 -6.9603,7.60946 -9.52,12.16 -0.7732,1.37454 -0.5391,5.00188 -1.7867,5.84891 -1.2914,0.87672 -2.9699,-1.24867 -3.7333,-2.00891 3.0245,-6.54378 6.6032,-15.85847 14.08,-18.56 m -347.2001,2.66664 c 1.1438,-0.368 2.6396,0.42723 1.9378,1.74227 -1.3477,2.52516 -4.9459,4.60363 -7.0578,6.47109 -0.9023,0.7979 -1.9734,1.91411 -3.2,2.16 -1.5123,0.30321 -1.9219,-1.31445 -1.12,-2.35554 1.4365,-1.86477 3.8392,-3.38192 5.6,-4.95114 1.1016,-0.98175 2.4027,-2.60421 3.84,-3.06668 m 34.24,4.05336 c 2.8857,2.84145 -2.7981,6.4 -5.44,6.4 0,-3.05687 2.8792,-5.05496 5.44,-6.4 m 525.4401,0.96 0.32,0.32 -0.32,-0.32 m -540.1601,7.68 -5.8933,6.51555 -8.5067,0.20445 -14.08,1.6 c 0.3,-1.69976 1.8262,-2.95152 2.8711,-4.28445 2.0806,-2.65402 4.3364,-5.16297 6.7289,-7.55555 1.0007,-1.0007 2.1406,-2.63039 3.52,-3.09335 1.1022,-0.36993 2.4138,0.0853 3.52,0.21335 3.988,0.46157 10.2893,2.15754 11.84,6.4 m 338.2401,4.48 c -0.202,2.77969 -5.3989,3.77508 -7.68,3.2 l -0.32,1.28 c 2.5171,0.26442 3.75,1.63485 5.9555,2.56 3.4053,1.42844 9.4357,0.53567 11.3245,4.48 -6.1463,0.64563 -13.3714,0.54043 -18.88,-2.71113 -1.5385,-0.90816 -2.5645,-1.80637 -3.4578,-3.36887 -1.0991,-1.92222 -0.8516,-3.78261 -3.5822,-3.84 0.5262,-5.07679 6.6009,-7.9171 10.88,-9.93777 1.5837,-0.74789 3.3315,-2.14988 5.12,-1.22668 2.8125,1.45184 4.6655,4.34985 6.1955,7.00445 0.4388,0.76125 1.5456,2.21723 0.7378,3.04 -1.6076,1.63731 -4.6216,-0.20632 -6.2933,-0.48 m -332.4801,-3.92 c 1.0725,0.13829 1.2942,1.19915 0.9156,2.02668 -0.6939,1.51641 -3.7471,7.73665 -5.7067,7.21778 -0.9165,-0.2427 -1.0857,-1.3175 -0.8089,-2.09778 0.5755,-1.62218 3.6097,-7.40332 5.6,-7.14668 m -41.28,3.06665 c 1.4242,-0.47586 2.5779,0.77125 1.9378,2.13335 -1.1512,2.44993 -3.9239,5.08118 -5.7867,7.04 -0.6792,0.7143 -1.5157,1.68282 -2.5511,1.8311 -1.5954,0.22848 -1.8497,-1.76578 -1.1733,-2.7911 1.4253,-2.16042 3.5757,-4.16746 5.3244,-6.08 0.664,-0.72621 1.2727,-1.80718 2.2489,-2.13335 m 378.8801,0.85335 0.32,0.32 -0.32,-0.32 m 119.68,5.12 0.32,0.32 -0.32,-0.32 m -50.56,3.52 -0.64,8.32 0.2311,2.84446 3.2889,1.31554 h 12.48 l 5.12,0.64 c 1.8583,0.23231 -0.057,3.60043 -0.4178,4.80001 -1.6861,5.60296 -1.5041,12.04351 0.1422,17.6 0.3524,1.18933 1.9034,6.17613 3.4845,5.93777 1.5274,-0.23027 1.975,-2.48207 2.2311,-3.69777 0.6005,-2.85122 0.9219,-7.10883 3.0044,-9.20891 3.3808,-3.40942 8.163,-0.0714 11.3867,-2.71109 3.4548,-2.82903 3.3124,-8.80106 6.7289,-12.0711 1.3916,-1.33195 3.8136,-2.35 5.76,-1.77781 1.1939,0.35098 2.2261,1.46726 3.52,1.41336 1.3273,-0.0553 2.5712,-1.06387 3.84,-1.41336 3.4986,-0.96371 9.4437,-1.64371 12.8,0.0267 4.5612,2.27008 3.0533,5.80094 4.2667,9.74223 0.6968,2.26335 3.0656,3.92328 3.3866,6.4 0.3277,2.52804 -0.6639,4.60093 -0.9067,7.04 -0.3953,3.97148 0.3819,8.3505 1.4489,12.16 0.6861,2.44933 1.2339,4.92179 1.9111,7.36 0.2496,0.89867 0.1295,2.66968 0.8801,3.29777 0.8321,0.69629 2.706,0.64051 3.7333,0.66668 6.6819,0.17012 1.7598,-5.77676 3.0044,-10.04445 0.5468,-1.87485 1.8718,-3.21309 2.9334,-4.8 2.2839,-3.41391 4.1819,-7.04403 4.5955,-11.2 0.4079,-4.09766 0.2401,-8.07938 -0.3644,-12.16 -0.1941,-1.30965 -1.2158,-4.29946 -0.6578,-5.44 0.8984,-1.83657 3.8972,-0.98731 5.5289,-0.76446 3.816,0.52117 8.0119,1.16328 11.84,0.79113 0.9332,-0.0907 2.3383,0.27497 3.1644,-0.25777 0.8164,-0.5264 0.4155,-1.54144 0.3645,-2.32891 -0.123,-1.89796 0.081,-6.85488 -1.3956,-8.21335 -0.726,-0.66766 -3.3206,-0.20934 -4.3733,-0.35555 -2.7252,-0.37852 -5.3735,-0.25867 -8,-1.0311 -0.9502,0.95016 -6.9649,0.3129 -8,-0.64 l -2.88,-0.32 c -0.8167,0.68141 -2.1062,0.32 -3.2,0.32 -2.5582,0 -5.1503,-0.0523 -7.68,0.0356 -10.3884,0.36067 -21.2643,0.31543 -31.68,-0.64887 -2.3673,-0.21918 -8.2688,0.6645 -9.92,-0.98668 -2.3711,0.63766 -7.1839,1.00981 -9.28,-0.32 -1.0549,0.66692 -1.5924,0.85735 -2.56,0 h -0.32 c -1.3685,0.86821 -4.5544,1.20555 -5.76,0 h -3.2 -1.92 c -0.7736,0.77364 -5.7208,0.67918 -6.4,0 h -0.32 -0.32 v 0.64 l -2.24,-0.64 -8.64,-0.32 m -423.6801,0.32 -9.4489,15.97333 -3.8311,8.51558 -7.84,2.62219 -19.84,7.76891 c 0.2493,-2.28176 1.5361,-4.34055 2.48,-6.4 2.425,-5.29079 5.4371,-10.2029 8.0623,-15.38668 1.15,-2.27094 3.1364,-6.59895 5.2622,-8.0711 1.6161,-1.11922 4.6923,-1.57832 6.5955,-2.14223 6.3907,-1.89347 11.8864,-2.88 18.56,-2.88 m 6.72,0.40891 c 1.478,-0.20965 1.7818,1.35641 1.4489,2.47109 -0.5161,1.72852 -3.7331,7.69692 -5.6178,7.89333 -1.4236,0.14835 -2.0311,-1.31192 -1.5555,-2.45333 0.7399,-1.77578 3.7254,-7.62753 5.7244,-7.91109 m 418.5601,90.7911 c 4.1848,1.01976 4.8093,5.03359 6.6578,8.32 0.6642,1.18086 0.8866,3.42007 2.6933,3.23554 3.1593,-0.32273 7.1254,-2.2714 10.1689,-3.34218 4.4422,-1.56301 9.1838,-2.58282 13.44,-4.62227 2.2769,-1.09098 5.1409,-1.85027 6.7111,-3.91109 2.7578,-3.61957 1.8513,-8.89582 3.8667,-12.8 0.5218,-1.01079 1.0286,-2.31868 1.9288,-3.04891 0.986,-0.79984 2.4879,-0.7791 3.3956,-1.59109 2.0923,-1.87172 1.9219,-5.84489 0.9067,-8.16 -1.0976,-2.50289 -5.9685,-1.60344 -8.1689,-1.75114 -5.944,-0.39902 -11.9626,-0.11215 -17.92,-0.16886 -3.7717,-0.0359 -7.2149,-0.73047 -10.88,0.64 -0.2163,-2.05926 -0.7443,-3.99118 -0.1689,-6.08 1.6169,-5.87008 9.1055,-6.25852 13.9289,-7.47555 4.0623,-1.025 10.3751,-1.99699 14.4,-0.51555 7.2279,2.66039 12.9362,13.59465 11.44,21.1111 -0.296,1.48703 -1.1739,3.75039 -2.4889,4.59554 -1.2372,0.79512 -2.7193,0.40543 -3.6089,1.81336 -2.8799,4.55793 -1.6846,10.56965 -4.9244,15.0311 -1.4795,2.03734 -3.4983,2.15914 -5.5378,3.23554 -5.9727,3.15227 -13.2174,5.44899 -19.84,7.12 -2.4485,0.61782 -5.4197,2.58102 -8,2.04446 -2.7024,-0.56196 -4.0695,-5.64633 -5.0222,-7.92 -0.5328,-1.27161 -1.343,-3.14282 -2.9778,-3.14664 -1.2869,-0.003 -2.348,1.35664 -3.1734,2.17773 -2.421,2.40844 -4.2705,5.50836 -5.7244,8.64891 -0.9067,1.95836 -2.4173,3.81558 -4.5067,2.18664 -3.5791,-2.79035 -3.6661,-10.27485 -4.2222,-14.34664 -1.148,-8.407 -3.2839,-18.14598 -7.5111,-25.52891 -2.2391,-3.91066 -5.3491,-7.95594 -9.1022,-10.54219 -1.7247,-1.18847 -3.7692,-1.49758 -5.4134,-3.04 -1.9233,-1.80433 -3.1271,-4.13176 -4.5155,-6.3289 -1.3606,-2.15313 -3.6863,-4.0686 -3.8311,-6.72 -2.1623,-0.38153 -2.756,-2.28282 -3.9734,-3.8311 -1.3369,-1.70047 -3.385,-3.61105 -5.0577,-4.9689 -7.1897,-5.83645 -14.3629,-11.37 -22.6489,-15.60891 -2.4673,-1.26219 -9.5934,-3.72672 -8,-7.2711 2.5314,0.68075 5.3919,0.29583 8,0.32 3.6568,0.0339 7.559,0.3484 11.2,-0.10667 3.199,-0.39985 6.2609,-2.40305 9.6,-1.29778 8.0839,2.6759 12.1597,8.95371 17.7244,14.80891 5.9835,6.2957 12.4644,13.17691 19.1111,18.76445 3.5603,2.99301 8.0596,7.77406 12.4445,9.44887 1.028,0.39262 1.857,-0.29746 2.88,-0.27555 1.7681,0.0379 3.9841,1.01867 5.44,1.95555 4.133,2.65969 7.1651,7.85711 8.7467,12.38223 0.4504,1.28863 1.4732,2.5182 1.7333,3.84 0.3479,1.76832 -1.3565,4.11531 -1.9467,5.76 -2.0729,5.77718 -5.0226,11.25125 -7.2533,16.96 m -463.031,-80.53356 c 1.7044,-0.5877 2.5081,1.01968 2.08,2.45335 -0.8825,2.95551 -3.1194,5.87825 -4.5066,8.64001 -0.5263,1.04761 -1.188,2.38269 -2.3823,2.77335 -1.7072,0.5584 -2.5251,-0.99261 -2.0889,-2.45335 0.8435,-2.82469 3.1318,-6.05899 4.5956,-8.64 0.5313,-0.9368 1.2169,-2.39915 2.3022,-2.77336 m 34.8978,5.76 c 1.9239,-0.73676 2.3626,0.9657 2.1422,2.45336 -0.2802,1.89195 -1.8352,7.56105 -3.7689,8.21335 -1.5749,0.53129 -2.3581,-0.74789 -2.1689,-2.13335 0.2524,-1.84793 1.9424,-7.82372 3.7956,-8.53336 m 170.8889,5.47558 c 1.5583,-0.28246 2.874,3.31156 3.4845,4.33778 2.9532,4.96429 5.8176,10.03214 8.0622,15.36 7.7666,18.43507 14.6578,36.92382 14.6578,57.28 0,5.02718 -1.1509,11.37898 -3.8489,15.68 -0.979,1.56062 -2.4803,3.54336 -4.4711,3.80445 -2.4088,0.3159 -1.0997,-2.81289 -0.8356,-4.12445 0.9648,-4.79055 1.7956,-9.49692 1.7956,-14.4 0,-19.72813 -3.4113,-40.40024 -11.44,-58.56 -2.1695,-4.90704 -4.001,-9.90415 -6.4089,-14.72 -0.3408,-0.68157 -2.5956,-4.36774 -0.9956,-4.65778 m 202.2045,54.57778 c 1.1274,0.5541 2.7164,3.33242 1.28,4.16 0.045,-2.88625 -3.8592,-7.19215 -5.2622,-9.72446 -5.5924,-10.09414 -13.5021,-18.15144 -21.6267,-26.43554 -2.8185,-2.87387 -12.1703,-4.27145 -11.3334,-9.92 0.4153,-2.80321 3.1648,-2.7793 5.2623,-2.02668 4.3565,1.56316 6.9344,4.56074 10.56,7.28 1.4769,1.10761 3.851,2.39777 4.7644,4.03558 0.7923,1.42047 0.6555,2.98778 1.6445,4.46219 4.1403,6.17258 7.6898,12.22367 10.8978,18.88891 1.2283,2.55199 4.2759,6.38179 3.8133,9.28 m -417.9201,-43.1111 c 1.7387,-0.29594 2.0332,1.47809 1.8934,2.7911 -0.227,2.13187 -2.3094,9.62918 -4.7734,9.87554 -1.3868,0.13867 -2.1768,-1.30652 -2.0089,-2.51554 0.357,-2.5702 1.8328,-5.6293 2.8889,-8 0.4309,-0.96723 0.8303,-1.952 2,-2.1511 m 38.72,0.33778 c 1.647,-0.16239 2.0164,1.50761 1.8933,2.77332 -0.2778,2.85871 -1.2329,5.54132 -1.831,8.32 -0.2435,1.13109 -0.6107,2.65511 -1.9823,2.83554 -1.3437,0.1768 -2.1766,-0.96152 -2.1422,-2.19554 0.083,-2.96504 1.1107,-6.48086 2.0178,-9.28 0.3308,-1.02082 0.8045,-2.3311 2.0444,-2.45332 m -8.32,4.05332 -1.7511,13.76 -0.1689,25.92 c -3.5159,0.0148 -6.6168,2.22312 -9.6,3.86664 -5.4032,2.97679 -10.8849,5.77453 -16.32,8.69336 -2.2866,1.228 -4.7451,3.1214 -7.36,3.44 0,-10.85012 0.8965,-21.42336 3.1734,-32 0.7478,-3.47364 0.8838,-8.43368 2.7911,-11.49332 1.2269,-1.96829 4.0245,-3.62282 5.8755,-4.95114 6.7423,-4.8382 15.1102,-8.10215 23.36,-7.23554 m 241.6356,3.33332 c 1.5226,-0.39215 3.9857,3.35976 4.8356,4.34668 4.0838,4.74253 8.4874,9.18375 12.4089,14.08 7.7681,9.69894 15.6264,19.28968 23.2267,29.12 4.4883,5.80531 7.8984,12.37468 13.5733,17.2089 0.9741,0.82977 2.7355,2.4943 4.16,2.17774 1.9114,-0.42473 2.9049,-2.8134 5.0489,-0.99555 2.9468,2.49856 1.4387,8.04836 -1.8489,9.23555 -6.5231,2.35554 -12.9701,-5.69227 -16.6222,-10.02664 -11.9199,-14.14641 -22.6336,-30.28454 -32.2134,-46.08 -3.0339,-5.0025 -6.7364,-9.80372 -10.3644,-14.4 -0.4906,-0.62149 -3.9208,-4.22465 -2.2045,-4.66668 m 223.3245,15.22668 6.08,0.96 h 1.28 l 2.56,0.32 3.84,-0.13336 10.56,0.13336 c -0.5142,-1.13528 -1.3423,-1.72114 -2.24,-2.56891 -1.0193,-0.96254 -1.9289,-2.13488 -3.2,-2.78219 -3.6757,-1.87191 -7.0882,-0.31726 -10.88,-0.0978 -3.0309,0.17539 -7.3955,0.38285 -8,4.16891 m -37.12,44.8 0.96,0.32 c -0.3285,1.53273 0.869,4.18453 2.7289,2.67554 2.4861,-2.01703 3.7251,-6.81855 4.7377,-9.71554 3.0203,-8.64121 5.651,-18.99297 3.5289,-28.16 -0.7914,-3.41879 -2.4325,-6.89985 -4.6577,-9.60891 -0.882,-1.07379 -2.1762,-2.5782 -3.7512,-1.68 -0.9262,0.5282 -1.7729,2.25113 -1.8666,3.28891 -0.1074,1.18937 0.6376,2.6275 0.8089,3.84 0.2747,1.94515 0.19,3.82789 0.3644,5.76 0.6109,6.76679 -0.8889,13.23078 -1.5467,19.84 -0.4363,4.38398 -0.016,9.30293 -1.3066,13.44 m -422.4001,-45.33333 c 1.0235,-0.12825 1.9911,0.49589 2.2045,1.49332 0.7311,3.41757 0.6755,7.39101 0.6755,10.88 0,1.46414 -0.087,3.1589 -1.92,3.43109 -1.5402,0.22871 -2.2953,-1.18762 -2.4889,-2.47109 -0.498,-3.30207 -0.3988,-6.89551 -0.3911,-10.24 0,-1.37125 0.246,-2.88356 1.92,-3.09332 m -44.16,0.95996 c 1.2515,-0.37602 2.4781,0.92402 2.4445,2.13336 -0.1174,4.22496 -1.9962,8.99476 -2.9511,13.12 -0.3343,1.4439 -0.1956,3.70312 -2.0534,4.08 -1.9957,0.40488 -2.3757,-1.6311 -2.1689,-3.12 0.5702,-4.10508 1.8211,-8.08532 2.6134,-12.16 0.2883,-1.48262 0.35,-3.52289 2.1155,-4.05336 m 44.48,21.09336 c 1.9385,-0.41176 2.4914,1.27824 2.7556,2.8 0.6081,3.50312 0.7055,7.06449 1.28,10.56 0.2203,1.34043 0.6006,3.76476 -1.1556,4.12445 -2.3774,0.48695 -2.6765,-0.9757 -3.2,-2.84445 -0.9177,-3.27649 -0.5659,-6.89102 -1.0311,-10.24 -0.2134,-1.53711 -0.7621,-3.95114 1.3511,-4.4 m -33.6,64.24 c -2.2693,-7.71563 -3.3455,-15.58321 -5.2177,-23.36 -0.9388,-3.89942 -1.8473,-9.80258 0.5777,-13.44 3.0874,-4.63106 10.1056,-6.86828 14.88,-9.24446 3.2343,-1.60961 6.5467,-3.21148 9.92,-4.51554 1.5079,-0.58293 3.2384,-1.33918 4.8,-0.5511 2.43,1.22637 2.0545,3.72063 2.2489,5.9911 0.348,4.06273 1.4386,8.0407 1.5911,12.16 0.1334,3.60277 1.5533,7.26414 1.9467,10.88 0.1265,1.16211 0.9525,3.05812 0.3822,4.15109 -0.5213,0.9993 -1.7578,1.00797 -2.6489,1.48445 -1.7576,0.93985 -3.63,1.9577 -5.3155,3.02223 -4.5275,2.85945 -9.2279,5.47465 -13.8845,8.11555 -2.9964,1.69937 -5.9817,4.28113 -9.28,5.30668 m -16,-48.8711 c 2.4085,-0.41484 2.1163,2.59434 2.4445,4.0711 0.8925,4.01656 1.0149,8.38859 1.4222,12.48 0.1553,1.56007 0.5661,3.76929 -1.6267,4.19554 -1.7699,0.34407 -2.4685,-1.91328 -2.5511,-3.23554 -0.2736,-4.37844 -0.7242,-8.73848 -0.9778,-13.12 -0.087,-1.49743 -0.9554,-4.0045 1.2889,-4.3911 m 587.8401,48.5511 c -0.3928,0.60336 0.5512,2.37117 0.8178,3.2 0.8225,2.55625 3.0488,6.9991 2.3822,9.6 1.1318,0.60406 0.9373,1.75672 0.64,2.88 1.6492,0.88738 1.8884,4.06687 2.5155,5.76 2.1609,5.83414 3.4171,11.93133 5.0667,17.92 2.9523,10.71808 6.0319,21.54023 9.7867,31.97336 4.5273,12.57945 8.8782,24.57863 11.4311,37.78664 -2.824,0.39156 -5.814,-0.24149 -8.64,-0.32 -10.9319,-0.30367 -22.3128,-1.35961 -33.28,-0.29336 -3.3509,0.32578 -7.5267,0.32891 -10.88,-0.22219 -1.1034,-0.18133 -2.6138,0.16664 -3.4133,-0.8 -1.1802,-1.42703 -0.4129,-5.31187 -0.1778,-7.00445 0.6859,-4.93844 0.19,-10.07203 0.6844,-15.04 1.9879,-19.97203 1.5318,-40.18356 3.52,-60.16 0.2529,-2.5411 -0.1996,-5.13891 0.053,-7.68 0.832,-8.35883 1.6601,-16.88102 1.8934,-25.28 0.1568,-5.64586 -0.7053,-11.72075 0.1956,-17.28 0.5864,-3.61946 -0.2282,-7.5318 -0.1689,-11.2 0.016,-1.00227 0.3584,-3.45938 1.5999,-3.69778 1.0573,-0.203 1.8843,1.01856 2.329,1.77778 1.3528,2.31 1.7221,5.14168 2.5422,7.65336 1.9991,6.12261 4.7667,12.12394 6.8711,18.26664 1.3268,3.87289 2.0622,8.69781 4.2311,12.16 m -534.7198,-37.65332 c 1.5121,-0.46746 2.5661,0.85687 2.9245,2.13332 1.0303,3.6698 1.9923,7.45882 2.7111,11.2 0.2661,1.38539 0.461,3.37183 -1.1556,3.9289 -1.9405,0.66864 -2.6643,-1.17082 -3.1022,-2.6489 -1.0301,-3.4768 -1.4795,-7.09922 -2.4889,-10.56 -0.4384,-1.50328 -0.9155,-3.4268 1.1111,-4.05332 m -48.96,20.8 c 1.6116,-0.49231 2.2974,1.23636 2.6045,2.45332 0.8588,3.4039 1.8099,6.82031 2.5778,10.24 0.2584,1.15093 0.6758,3.09468 -0.7289,3.68 -1.1274,0.46976 -2.3007,-0.0731 -2.8178,-1.12 -1.5846,-3.20778 -2.1594,-7.99344 -2.8533,-11.52 -0.2747,-1.39586 -0.566,-3.18844 1.2177,-3.73332 m 326.4001,55.25332 c -3.8482,-6.68539 -7.0473,-14.19317 -11.9645,-20.16 -1.8244,-2.21391 -5.3549,-5.03864 -4.1244,-8.32 0.9878,-2.6341 6.4367,-2.44149 8.7289,-2.21336 9.0664,0.9025 16.9375,3.67367 25.6,-0.73774 4.3004,-2.19004 8.4529,-6.54718 10.7022,-10.8089 1.921,-3.63969 3.0759,-9.23274 7.5378,-10.72 4.3072,-1.43571 12.5722,4.00672 9.1289,8.8 -1.5506,2.15859 -4.6738,2.96324 -6.8889,4.24 -2.7132,1.56383 -5.4487,3.76773 -7.6089,6.02664 -3.1103,3.25242 -5.6975,6.92234 -8.7378,10.21336 -2.2375,2.42203 -5.0428,4.19019 -7.1822,6.79109 -4.6059,5.59945 -8.9681,12.9407 -15.1911,16.88891 m -269.1201,-50.14223 c 1.2894,-0.31617 2.2493,0.76621 2.7467,1.82223 1.3833,2.93703 2.5174,6.2132 3.5822,9.28 0.3674,1.05812 0.7687,2.88156 -0.5956,3.41332 -0.9255,0.36078 -2.4145,0.16031 -3.0933,-0.56887 -1.7739,-1.9057 -2.3866,-6.17203 -3.3422,-8.60445 -0.3623,-0.92235 -1.156,-2.20508 -1.1467,-3.2 0.01,-0.98235 0.9292,-1.91668 1.8489,-2.14223 m 318.0801,9.82223 -7.6089,10.56 -4.2311,4.8 c 1.6063,-4.11086 4.0412,-8.24555 6.5955,-11.84 1.4935,-2.1016 2.5576,-3.52 5.2445,-3.52 m -327.0401,0.32 12.3289,24.5689 5.5556,8.3911 2.5955,4.48 -8,6.59554 -19.2,15.80446 c -2.6292,-1.69664 -4.2301,-5.4293 -5.9022,-8 -4.7121,-7.24422 -9.4137,-14.52883 -13.0578,-22.4 -1.1391,-2.46055 -2.4205,-4.86828 -3.4933,-7.36 -0.3632,-0.84344 -1.0804,-2.23739 -0.7911,-3.17336 0.6145,-1.98824 5.269,-3.9411 6.9244,-5.10219 5.088,-3.56863 10.3558,-6.94672 15.68,-10.15109 2.3291,-1.40172 4.6499,-3.12953 7.36,-3.65336 m 17.92,10.98668 c 1.4105,-0.43606 2.3655,0.733 2.9511,1.81332 1.6267,3.00086 3.4617,6.10094 4.72,9.28 0.4601,1.1623 0.4194,2.60945 -0.9778,3.09332 -0.8834,0.30597 -2.0758,0.14379 -2.7022,-0.56887 -2.1632,-2.46105 -4.3676,-7.41934 -5.3955,-10.52445 -0.4156,-1.25535 0.04,-2.67164 1.4044,-3.09332 m -56.64,2.33777 c 1.4977,0.12656 1.987,1.83832 2.5067,2.99555 1.5254,3.39679 4.0344,7.84469 4.6044,11.52 0.1773,1.14293 -0.7506,2.48289 -1.9911,2.4089 -1.5476,-0.0923 -2.2029,-1.82734 -2.6666,-3.0489 -1.3134,-3.45949 -3.4282,-6.94422 -4.24,-10.56 -0.3169,-1.41133 -0.1665,-3.48063 1.7866,-3.31555 m 353.6001,2.35555 -0.32,0.96 h -0.32 l 0.64,-0.96 m -284.8001,16.74668 c 1.7582,-0.57645 2.9057,1.28125 3.7956,2.45332 2.5074,3.30238 5.4493,6.65187 7.52,10.24 0.8244,1.42855 0.2033,3.09246 -1.3956,3.62664 -1.7176,0.5739 -2.7823,-1.53887 -3.5733,-2.66664 -2.2725,-3.23992 -4.7657,-6.31055 -6.9511,-9.6 -0.9286,-1.39766 -1.5682,-3.34094 0.6044,-4.05332 m -59.1733,6.08 c 1.5702,-0.60785 2.6136,0.75488 3.4756,1.81332 2.3743,2.91554 4.499,6.41828 6.5244,9.6 0.807,1.26769 1.2361,2.76351 -0.4267,3.6089 -1.411,0.71739 -2.5546,-0.67855 -3.2977,-1.6889 -2.2623,-3.07586 -4.731,-6.32067 -6.6667,-9.6 -0.6087,-1.03117 -1.0906,-3.15977 0.3911,-3.73332 m 87.3333,39.25332 c -3.5367,1.87242 -6.294,6.50648 -8.7644,9.6 -4.5676,5.71945 -9.6369,11.05297 -13.9556,16.96 -2.9954,-0.76774 -5.7354,-4.03516 -8,-6.05336 -6.4522,-5.75023 -12.4407,-11.63016 -18.3111,-17.97328 -1.784,-1.92778 -3.4415,-3.87891 -5.0756,-5.92 -0.664,-0.82949 -1.9878,-1.4127 -1.8488,-2.66672 0.1554,-1.40242 2.4833,-2.55867 3.4755,-3.35109 3.5966,-2.87223 7.0589,-5.92422 10.56,-8.90665 2.8573,-2.43394 5.7527,-4.81835 8.64,-7.21781 1.0182,-0.84609 2.4237,-2.52383 3.84,-2.48 3.3814,0.10469 6.4344,5.12344 8.4445,7.52891 4.0287,4.82101 8.9599,9.53398 13.6355,13.73336 2.3565,2.1164 5.6693,4.08179 7.36,6.74664 m -11.2,-25.18223 c 1.3299,-0.33961 2.626,0.65539 3.52,1.51113 2.7982,2.67825 5.796,5.64625 8.2489,8.6311 0.8257,1.00469 1.8613,3.38445 0.062,4.05332 -1.6785,0.62406 -2.9299,-0.55035 -4.0355,-1.5911 -2.9096,-2.73898 -6.7742,-5.87878 -8.9689,-9.18222 -0.8305,-1.25 -0.3598,-3.0307 1.1733,-3.42223 m -59.2,14.41778 c 1.137,-0.0452 2.1642,1.37839 2.8534,2.12445 2.2821,2.47031 5.1188,5.07523 6.7911,8 0.7319,1.28012 1.0841,3.84789 -1.0045,4.05336 -1.4418,0.14179 -2.4122,-1.47735 -3.1555,-2.45336 -2.1374,-2.80645 -5.0129,-5.26539 -6.8089,-8.32 -0.7241,-1.23149 -0.5261,-3.33094 1.3244,-3.40445 m 78.72,3.54668 c 1.4594,-0.0136 2.7098,1.22714 3.84,1.99113 3.1797,2.14914 7.1625,4.51637 9.9112,7.17328 1.2471,1.20559 1.448,3.73594 -0.6312,4.26672 -1.5063,0.38453 -2.8164,-1.14 -3.9111,-1.88446 -3.1921,-2.17101 -8.3976,-4.78406 -10.7022,-7.87554 -1.0245,-1.37434 -0.3802,-3.65375 1.4933,-3.67113 m 23.0401,14.97777 c 1.4846,-0.31535 2.7157,0.97344 3.84,1.73336 2.8796,1.94637 6.5227,4.03844 8.9333,6.53328 1.0412,1.07758 1.3753,2.96906 -0.32,3.65336 -1.3782,0.55629 -2.8767,-0.33234 -3.9378,-1.12891 -2.9361,-2.20414 -7.3564,-4.27363 -9.6355,-7.15554 -0.9582,-1.21157 -0.4648,-3.29891 1.12,-3.63555 m -8.32,8.56 5.44,3.67109 12.8,7.20891 c -1.8735,9.90887 -10.4491,17.90809 -14.08,27.2 -9.0822,-2.63313 -18.4192,-7.04352 -26.5601,-11.84891 -3.9637,-2.33968 -7.9771,-5.48179 -12.16,-7.35109 1.2988,-1.83203 3.2589,-3.30457 4.6667,-5.12 3.6363,-4.68914 7.1833,-9.44 10.8889,-14.08 1.7362,-2.17399 5.362,-5.16539 5.5644,-8 4.9604,0.3543 8.518,7.78258 13.4401,8.32 m -72.3201,-3.09332 c 1.2775,-0.24473 2.4471,1.07441 3.3245,1.81332 2.1637,1.82207 4.3484,3.65605 6.5955,5.37777 0.8718,0.66793 2.122,1.08196 2.7734,1.99114 0.8045,1.12292 0.062,2.66 -1.1734,3.08441 -1.5418,0.52988 -2.7506,-0.51695 -3.84,-1.42223 -2.7943,-2.32215 -6.5233,-4.67574 -8.8089,-7.50218 -1.0274,-1.27055 -0.6083,-3.00938 1.1289,-3.34223 m 103.0401,7.33332 c 1.4231,-0.33289 2.6492,0.48875 3.84,1.12 2.2106,1.17183 5.5149,1.93312 7.3244,3.68 1.0892,1.05148 0.9688,3.44258 -0.6044,3.97332 -1.1609,0.39164 -2.2226,-0.43797 -3.2,-0.92441 -2.4699,-1.22922 -5.9928,-2.18907 -7.9911,-4.11555 -1.213,-1.16945 -1.3134,-3.27856 0.6311,-3.73336 m 144.96,4.4 c -0.7335,2.8157 -3.9816,5.78844 -6.0089,7.80445 -4.8803,4.85313 -9.5683,9.34723 -15.12,13.46664 -2.218,1.64578 -4.8766,4.16348 -7.6711,4.64891 -0.1958,-1.86398 -0.3664,-3.97723 -0.9689,-5.76 -0.2997,-0.8868 -1.2126,-2.21684 -0.7111,-3.16445 0.4202,-0.79395 1.5643,-0.90059 2.32,-1.18223 2.25,-0.83856 4.4889,-1.62723 6.72,-2.49777 5.0542,-1.97211 10.0097,-4.65016 14.4,-7.8311 2.2765,-1.64945 4.5965,-4.26847 7.04,-5.48445 m -8,0.32 -2.24,1.6 2.24,-1.6 m -7.68,4.16 v 0.64 l -4.16,1.6 c 0.2996,-1.58399 2.7024,-2.59524 4.16,-2.24 m -110.4,0.10668 c 1.2001,-0.41246 2.4139,0.26754 3.52,0.63109 2.8685,0.94293 7.1978,1.67403 9.5644,3.61778 1.3072,1.07359 0.5158,2.99875 -0.9244,3.48445 -1.1895,0.40117 -2.7361,-0.33656 -3.84,-0.73777 -2.6113,-0.94903 -6.4036,-1.42551 -8.6311,-3.09332 -1.4292,-1.07012 -1.6493,-3.22844 0.3111,-3.90223 m 101.76,3.41332 c -0.6963,3.6809 -7.1254,1.57789 -3.2,0.0889 0.385,-0.1461 0.8732,-0.22391 1.28,-0.28446 0.7062,-0.10511 1.241,0.0158 1.92,0.19555 m 27.2,-0.32 c -0.4948,1.47187 -1.2495,3.85152 -2.88,4.16 l 2.88,-4.16 m -158.4,26.88 12.8,-25.6 c 5.173,1.65187 10.1635,3.8757 15.36,5.47555 6.0045,1.84859 12.1819,3.05402 18.24,4.66668 3.0382,0.80879 6.2812,0.59285 9.28,1.50222 0.7541,0.22867 2.1314,-0.0655 2.6489,0.62219 0.6006,0.79809 0.2377,2.7802 0.2311,3.73336 -0.028,4.06516 -1.1861,7.86344 -1.8489,11.84 -0.2002,1.20125 -0.2488,4.13254 -1.68,4.44445 -5.2723,1.14907 -12.1518,-0.29859 -17.4667,-0.66668 -12.6367,-0.87511 -25.2285,-2.7005 -37.5644,-6.01777 m -66.5601,-25.17336 c 1.3567,-0.13629 2.8178,1.41398 3.84,2.13336 3.0645,2.15656 6.5944,4.48078 9.2534,7.11109 1.1529,1.14055 1.3516,3.28559 -0.6134,3.68891 -1.5833,0.325 -2.7769,-1.20016 -3.9111,-2.03555 -3.0597,-2.25367 -7.3659,-4.53543 -9.7511,-7.51109 -0.9778,-1.21992 -0.5858,-3.20906 1.1822,-3.38672 m 186.2401,0.92445 c 1.4345,-0.23906 3.587,0.44543 1.8844,2.08891 -1.0213,0.98586 -3.3796,1.48973 -4.7644,1.6 -1.297,0.10328 -2.2243,-1.1943 -1.1734,-2.24891 0.859,-0.86195 2.8852,-1.24527 4.0534,-1.44 m -67.5111,0.64891 c 2.3527,-0.60754 7.4765,0.47223 9.5822,1.60891 1.5101,0.81515 1.8042,3.21543 0,3.91109 -1.7979,0.6932 -7.9112,-0.53016 -9.5822,-1.47555 -1.5221,-0.86113 -2.112,-3.49906 0,-4.04445 m 55.6711,1.91109 c 4.3927,-0.61008 2.8264,3.06918 -0.64,3.42223 -1.0989,0.11191 -6.1814,-0.20434 -3.7956,-2.42664 1.0029,-0.9341 3.1557,-0.81777 4.4356,-0.99559 m -35.52,0.39114 c 2.1453,-0.0846 6.1308,0.0256 8,1.11109 1.8046,1.04793 1.471,3.23105 -0.64,3.52 -2.3101,0.31625 -6.2491,0.19242 -8.3111,-0.91555 -1.9647,-1.05566 -1.1767,-3.6316 0.9511,-3.71554 m 17.6,1.20886 c 1.6951,-0.25504 4.4799,-0.41609 6.0444,0.4 1.3327,0.69512 0.6484,2.66098 -0.6044,2.96891 -1.5697,0.38582 -5.2046,0.52262 -6.7111,-0.08 -2.3207,-0.92828 -0.264,-3.05789 1.2711,-3.28891 m 63.68,1.20891 c -1.0521,1.70336 -2.559,3.77777 -4.48,4.48 0.1312,-1.8368 2.5345,-4.95391 4.48,-4.48 m -32.64,13.76 c -11.6308,5.52219 -23.7578,8.68031 -36.48,9.94668 -2.6441,0.26316 -5.3724,0.30547 -8,0.64 -2.1053,0.26801 -3.9515,1.07141 -6.08,0.29332 1.0799,-4.0157 0.2815,-8.96918 0.32,-13.12 0.01,-0.93742 -0.053,-4.34797 0.7466,-4.88 0.6185,-0.41156 2.0481,0.0733 2.7734,0.08 2.6661,0.0247 5.3337,0 8,0 8.3865,0 16.9929,-0.31191 25.28,-1.63555 2.6485,-0.42304 7.7085,-2.6764 10.2311,-1.43109 2.4205,1.19492 2.7488,7.67363 3.2089,10.10664 m 15.04,1.28 c 0.1569,-2.19648 2.7146,-3.43984 4.48,-4.45332 0.5402,-0.31012 1.8364,-0.99324 2.32,-0.24004 0.4785,0.74527 -0.5393,1.48336 -1.04,1.84891 -1.6548,1.2082 -3.6758,2.80066 -5.76,2.84445 m -171.2001,-3.09336 c 1.53,-0.51484 3.2219,0.6727 4.48,1.36 3.0211,1.65039 6.415,2.81242 9.2711,4.73781 1.1807,0.79586 2.053,2.87133 0.3201,3.6711 -1.1885,0.54851 -2.7721,-0.24625 -3.8312,-0.77332 -3.3107,-1.6477 -7.653,-3.24856 -10.5333,-5.54668 -1.2573,-1.00317 -1.516,-2.84 0.2933,-3.44891 m 165.4401,4.44445 c 1.2986,-0.20437 2.9,0.72746 1.4667,1.96446 -0.9598,0.82832 -3.4135,1.68765 -4.6667,1.77777 -0.9835,0.0707 -2.3906,-0.63746 -1.44,-1.74223 0.8282,-0.96246 3.4119,-1.80668 4.64,-2 m -14.08,5.46668 c 1.5851,-0.36324 3.121,1.03032 1.5911,2.32891 -1.4841,1.25965 -4.8003,1.83492 -6.7111,1.97332 -1.3209,0.0957 -2.5344,-1.19594 -1.2445,-2.24891 1.3696,-1.118 4.6419,-1.65855 6.3645,-2.05332 m -124.48,1.60887 c 2.2877,-0.7993 5.7544,0.98328 8,1.46668 1.1208,0.24129 2.4754,0.18301 3.4933,0.75559 1.5,0.84367 1.6053,2.63101 0.027,3.44886 -0.92,0.4766 -1.9228,0.17727 -2.88,0 -2.4533,-0.45433 -6.4696,-0.76523 -8.64,-1.97332 -1.4563,-0.81062 -1.8509,-3.05109 0,-3.69781 m 105.92,3.16445 c 1.6078,-0.20468 3.35,1.59879 1.5645,2.78227 -1.4682,0.97309 -5.2358,1.53586 -7.0045,1.61773 -1.5145,0.0702 -3.2618,-1.34105 -1.5644,-2.66664 1.5642,-1.22164 5.062,-1.48605 7.0044,-1.73336 m -80.96,1.95555 c 1.6163,-0.54887 3.232,0.33246 4.8,0.50668 3.5309,0.39234 7.4456,0.26285 10.88,1.20891 1.6743,0.46121 4.1455,2.59636 1.5911,3.90222 -1.2746,0.6516 -2.8043,0.0854 -4.1511,0.0356 -3.0447,-0.11277 -6.2732,-1.02773 -9.28,-1.52891 -1.3377,-0.22293 -2.8636,-0.0387 -4.1511,-0.55109 -1.8216,-0.725 -1.3765,-3.00023 0.3111,-3.57336 m 56.64,0.92445 c 1.9021,-0.26414 5.6164,-0.62734 7.3511,0.28446 1.9041,1.0009 0.672,3.03539 -0.9511,3.40445 -1.9948,0.45359 -6.7278,0.68129 -8.6311,-0.08 -1.1587,-0.46352 -1.389,-2.44375 -0.2933,-3.12891 0.6184,-0.38675 1.806,-0.38019 2.5244,-0.48 m -26.56,1.92 c 1.3048,-0.23472 2.5454,0.21297 3.84,0.24891 2.1313,0.0592 5.3357,-0.64762 7.3333,0.10664 1.8014,0.68023 1.3154,3.07 -0.2933,3.62672 -2.3121,0.80008 -5.5919,-0.21336 -8,-0.21336 -1.0582,0 -2.4943,0.24586 -3.4933,-0.16 -2.0606,-0.83711 -1.267,-3.27063 0.6133,-3.60891 m 278.08,51.44891 v 25.92 c -0.8997,0 -2.0527,-0.18734 -2.88,0.2311 -2.2814,1.15406 -2.0094,4.1741 0,5.37781 2.1122,1.26527 5.9315,0.85742 8.32,0.79109 1.5613,-0.0434 3.9598,-0.10094 5.0845,-1.30668 2.8086,-3.01097 -1.1485,-5.41332 -3.8045,-5.41332 1.1549,-3.15957 -0.9412,-7.57531 0.5511,-10.56 1.7521,-3.50414 9.8985,-6.30691 12.16,-1.92 1.6049,3.1132 0.4089,9.32348 0.4089,12.8 -0.8997,0 -2.0526,-0.18742 -2.88,0.2311 -2.0105,1.01703 -2.1257,3.99121 -0.2933,5.25335 2.1165,1.4579 6.1611,0.98368 8.6133,0.91555 1.7574,-0.0488 4.2153,-0.13539 5.3956,-1.6089 2.3768,-2.96727 -1.7364,-5.1111 -4.1156,-5.1111 0,-4.56863 1.0642,-10.70183 -0.4622,-15.04 -2.5682,-7.29914 -13.445,-8.3341 -19.0578,-4.16 v -9.28 c 0,-0.8934 0.335,-2.66117 -0.2311,-3.41336 -0.5173,-0.68738 -1.9042,-0.42664 -2.6489,-0.42664 -2.2272,0 -6.8667,-0.87734 -8.6044,0.72 -1.7321,1.59219 -1.1294,5.0327 1.2444,5.6 0.9988,0.23871 2.1751,0.29234 3.2,0.4 m 121.6,32.32 c 0,-2.55965 -0.024,-5.12051 0,-7.68 0.01,-0.88336 0.013,-2.23832 0.9867,-2.67555 1.0164,-0.45628 2.1546,1.04528 2.8533,1.58223 1.0478,0.80524 2.7955,1.67668 3.2534,3.01332 0.6372,1.85996 -1.4539,4.17672 1.5466,5.28 2.9281,1.0766 8.9117,1.05992 11.84,0 1.8972,-0.68668 2.8012,-2.90047 1.7156,-4.64 -1.3342,-2.13769 -3.711,-0.63812 -5.5556,-1.68 -3.6891,-2.08367 -6.3236,-5.97344 -9.92,-8.24 v -0.32 c 2.4603,-1.30242 4.4366,-4.01988 7.04,-4.96 1.9814,-0.71551 4.8074,0.11973 5.9911,-2.08891 0.8863,-1.65359 0.3494,-3.953 -1.5111,-4.63109 -2.4515,-0.89351 -6.3573,-0.16 -8.96,-0.16 -1.0979,0 -2.4851,-0.22285 -3.52,0.20445 -2.4976,1.03125 -1.1453,2.8152 -1.6444,4.59555 -0.3841,1.36984 -2.5879,2.66215 -3.7956,3.2 v -14.08 c 0,-1.27476 0.5567,-4.28672 -0.2311,-5.33336 -0.5845,-0.77672 -2.4391,-0.42664 -3.2889,-0.42664 -2.4473,0 -7.408,-1.02105 -8.48,1.92 -1.7954,4.92602 4.6605,3.1809 4.9511,6.08 0.523,5.21699 0.01,10.75379 0.01,16 0,2.23223 0.6991,5.23617 0.2845,7.36 -0.5298,2.71387 -5.3592,0.1541 -5.2089,4.48 0.018,0.50422 0.09,1.13277 0.3555,1.57332 1.6304,2.70059 8.6217,1.62668 11.2889,1.62668 m -420.16,-27.2 c -3.2492,-1.18773 -8.8638,1.74703 -5.4044,5.41332 1.2559,1.3311 3.9996,1.29942 5.7244,1.30668 0,5.94219 -2.0492,15.47559 3.52,19.36891 4.7734,3.33695 12.797,1.89722 17.92,0.24886 2.1168,-0.68109 5.2485,-1.98652 5.4045,-4.57777 0.1334,-2.21641 -2.1054,-3.75039 -4.1245,-3.49332 -4.2343,0.5391 -10.2729,5.19414 -14.7111,2.05332 -1.2267,-0.86808 -0.9689,-2.36195 -0.9689,-3.68 v -9.92 c 3.7623,0 7.8086,0.41442 11.52,-0.19555 1.1028,-0.18125 2.2827,-0.0155 3.1645,-0.84445 1.96,-1.84269 0.819,-5.12609 -1.5645,-5.84891 -2.9731,-0.90156 -10.2428,-0.88285 -13.12,0.16891 0,-2.79562 0.6232,-6.44379 -0.8622,-8.96 -1.0083,-1.70797 -4.1476,-1.82461 -5.3867,-0.29332 -1.8665,2.30676 -0.3735,6.51066 -1.1111,9.25332 m 155.84,-10.11555 c -8.3194,1.61762 -13.3872,11.66168 -6.72,18.10664 3.9211,3.7904 10.0471,3.83625 15.04,5.08446 2.0429,0.51074 5.2916,2.1948 3.9289,4.84445 -2.4655,4.79406 -11.7228,3.77856 -15.12,0.88 -1.9728,-1.68332 -2.8975,-6.85785 -6.72,-4.24 -2.6337,1.80375 -1.295,5.845 -1.2889,8.48 0,1.27574 0.057,2.8068 1.3067,3.53777 2.0067,1.17415 3.2621,-0.56093 5.0933,-0.48886 1.725,0.0679 3.7621,1.15719 5.44,1.6 2.1343,0.5632 5.8481,0.50094 8,0.0178 7.874,-1.76801 15.1092,-10.47687 7.9289,-17.71559 -3.456,-3.48417 -8.3244,-3.41753 -12.7289,-4.70218 -2.0571,-0.6 -8.0142,-1.46907 -6.88,-4.96891 1.5699,-4.84414 9.9548,-4.64773 12.9333,-1.57332 1.2921,1.33363 1.0821,3.52215 2.6134,4.66664 0.9614,0.71852 3.1467,0.65133 4.1066,-0.0533 2.2116,-1.62332 2.2247,-10.63777 0.018,-12.21336 -1.8557,-1.32488 -3.3797,0.53508 -5.1111,0.34668 -1.1912,-0.12957 -2.3425,-1.1416 -3.52,-1.45777 -2.351,-0.63129 -5.9296,-0.61586 -8.32,-0.1511 m -275.52,7.23555 v 23.36 c -3.0104,0.0506 -5.7494,3.72414 -2.5511,5.92 1.8673,1.28203 5.2061,0.8 7.3511,0.8 6.2139,0 13.9203,0.89754 19.2,-3.01332 9.0417,-6.69758 9.0408,-23.50535 0,-30.45336 -5.158,-3.96398 -11.8297,-3.01332 -17.92,-3.01332 -2.3931,0 -5.3503,-0.47133 -7.68,0.08 -4.2472,1.00516 -2.0362,6.30473 1.6,6.32 m 7.04,23.36 v -23.04 c 3.9139,0 9.0919,-0.94297 12.48,1.43109 5.4804,3.84016 6.2798,15.83489 0.64,19.78668 -3.5568,2.49231 -8.9797,1.82223 -13.12,1.82223 m 35.52,-19.52 c 0,-1.46215 -2.3511,-0.96 -3.52,-0.96 -1.7215,0 -4.3636,-0.52211 -5.7511,0.67555 -2.7433,2.36797 -0.5603,5.67219 2.5511,5.72445 v 14.08 c -3.2859,0.0552 -5.4091,3.79504 -2.24,5.97332 1.9469,1.33828 5.751,0.80914 8,0.74668 1.3692,-0.038 3.4536,-0.16238 4.3733,-1.30668 2.1911,-2.72594 -0.7399,-5.40207 -3.4133,-5.41332 0.4212,-2.22762 0.32,-4.45715 0.32,-6.72 0,-1.655 -0.4868,-4.01144 0.4711,-5.44 1.0989,-1.63883 4.7764,-3.98238 5.8222,-0.96 0.4409,1.27414 0.1067,3.14055 0.1067,4.48 v 10.24 c 0,1.08617 -0.53,4.16891 0.4266,4.88891 0.5915,0.44515 1.7612,0.23109 2.4534,0.23109 2.1582,0 5.7982,0.43277 7.2,-1.6089 1.6183,-2.35704 -0.5814,-5.05946 -3.04,-5.1111 v -6.4 c 0,-1.64457 -0.515,-4.34258 0.4266,-5.76 0.9436,-1.42027 4.4102,-4.00699 5.4934,-1.27109 0.4971,1.25543 0.16,3.13933 0.16,4.47109 v 10.24 c 0,1.13129 -0.5624,4.46453 0.4266,5.20891 1.4891,1.12062 8.0618,0.40043 9.3423,-0.88 2.5697,-2.56961 -0.2775,-5.59727 -3.0489,-5.60891 0,-6.53949 2.7484,-20.44894 -6.72,-21.41332 -1.7204,-0.17523 -3.8182,-0.22047 -5.44,0.41777 -0.9656,0.38 -2.1528,1.47797 -3.2,1.47555 -1.2397,-0.003 -2.3413,-1.41418 -3.52,-1.76891 -2.9524,-0.88843 -5.2095,0.47137 -7.68,1.76891 m 122.24,2.24 c 0,-0.85844 0.3511,-2.70359 -0.4266,-3.28891 -0.6471,-0.48695 -2.0125,-0.23109 -2.7734,-0.23109 -2.4173,0 -6.93,-0.86969 -8.8889,0.79109 -2.4828,2.10512 -0.655,5.68938 2.1689,5.93782 1.0823,0.0952 2.1061,0.30648 3.2,0.31109 v 13.76 c -1.8973,0 -4.6585,-0.50469 -6.4,0.35555 -1.9839,0.98004 -2.0869,4.32047 -0.3111,5.56445 2.1618,1.5143 6.7482,0.8 9.2711,0.8 h 11.2 c 1.436,-0.003 3.8997,0.0317 5.1111,-0.8 1.9681,-1.35121 1.5501,-4.77539 -0.64,-5.71555 -2.9219,-1.25433 -8.3294,-0.20445 -11.5111,-0.20445 0,-2.27598 -0.6874,-5.84289 0.1067,-7.97332 0.3675,-0.98598 1.6365,-1.68625 2.4533,-2.26668 2.1487,-1.52691 4.6041,-3.87984 7.3334,-4.19555 2.6629,-0.30804 5.668,4.33504 8.1866,0.66664 2.202,-3.20718 -1.9175,-6.55476 -4.64,-7.38664 -5.2436,-1.60226 -9.1153,1.60418 -13.44,3.87555 m 35.52,-4.03555 c -10.5416,1.83016 -17.0231,13.99911 -10.1066,22.91555 3.8315,4.93953 11.529,6.66641 17.4666,5.63555 10.9238,-1.89649 17.0866,-14.25047 9.5289,-23.23555 -3.9826,-4.73484 -10.9768,-6.34195 -16.8889,-5.31555 m 122.56,9.79555 c -3.7394,-0.39277 -8.1632,-0.91391 -11.84,0.12445 -6.1363,1.73293 -14.8812,10.31789 -7.04,16.04446 1.0832,0.79101 2.583,1.7182 3.84,2.18664 5.1126,1.90539 10.7143,-0.54024 15.36,-2.35555 v 2.24 c 2.971,0 7.5241,0.77789 10.24,-0.62223 2.0204,-1.04152 2.1333,-4.05019 0.3111,-5.35109 -0.9357,-0.66805 -2.7045,-0.68988 -3.8311,-0.74668 0,-5.72457 1.93,-15.11504 -3.2,-19.06668 -4.3801,-3.37402 -12.2293,-3.14508 -17.28,-1.52 -1.9465,0.62633 -4.7448,0.76082 -5.0933,3.30668 -0.4074,2.97656 1.7459,4.38301 4.4533,4.15109 3.5079,-0.30042 6.6068,-1.65941 10.24,-1.29777 2.1451,0.21352 3.7023,0.38531 3.84,2.90668 m 67.2,-9.79555 c -10.5094,1.82457 -16.3912,14.65039 -9.4755,23.23555 4.0968,5.08578 9.9545,5.12406 15.8755,5.13777 3.3958,0.008 6.7602,-0.0609 9.92,-1.70667 1.6743,-0.872 3.4257,-2.17704 4,-4.0711 0.7058,-2.32766 -1.153,-4.22133 -3.36,-4.16 -2.2977,0.0638 -3.656,2.3175 -5.76,3.05777 -1.6135,0.5677 -2.8704,0.17668 -4.48,0.24 -2.0293,0.0799 -4.4169,0.47458 -6.4,-0.0533 -3.9174,-1.04285 -7.1161,-5.26746 -5.36,-9.32445 2.1632,-4.99723 10.5589,-8.04207 15.2711,-4.38223 2.2095,1.71598 2.4625,7.5893 6.7289,5.43114 3.2717,-1.655 3.3479,-10.47477 0.32,-12.36446 -1.7764,-1.10871 -3.0582,0.47293 -4.8,0.18664 -4.2333,-0.69574 -8.0214,-2.0007 -12.48,-1.22664 m 69.76,17.47555 h 12.48 9.28 c 0.8936,0 2.6611,0.335 3.4133,-0.23109 0.7756,-0.58371 0.4287,-2.44008 0.4267,-3.28891 -0.01,-3.67437 -2.1592,-7.74461 -4.8,-10.23109 -8.3332,-7.84649 -24.1495,-4.07727 -28.0266,6.39109 -1.1175,3.01727 -0.8575,6.34234 0.3733,9.28 3.8426,9.17176 14.3907,10.25246 22.88,8.74668 2.7728,-0.49183 8.9179,-0.87418 9.2444,-4.58668 0.3037,-3.45211 -3.1974,-3.56617 -5.7511,-3.07555 -6.5357,1.25571 -15.2142,3.82715 -19.52,-3.00445 m 40.96,-15.36 v -1.28 c -2.319,0 -7.3521,-0.94336 -9.271,0.42668 -3.0658,2.18871 -0.459,5.96066 2.551,5.97332 v 9.28 c 0,1.21426 0.3319,3.0077 -0.1067,4.15109 -0.3998,1.04239 -1.3028,0.55575 -2.1333,0.81782 -1.5672,0.49453 -2.5257,2.42367 -2.16,3.99109 0.2915,1.2493 1.5954,2.03766 2.8,2.21332 2.9536,0.43074 10.3622,1.55485 12.3733,-1.26222 2.2192,-3.10836 -1.469,-5.06766 -4.0533,-5.1111 0,-2.86586 -0.9882,-7.98523 0.3022,-10.56 1.6803,-3.35266 9.4061,-6.13414 12.0711,-2.55109 0.9232,1.24117 0.7467,3.01722 0.7467,4.47109 v 8.96 c -2.9539,0.0124 -5.5449,3.17688 -2.5333,5.47555 2.1185,1.61703 9.6079,1.6325 11.8044,0.12445 1.8372,-1.26125 1.8922,-4.17219 0,-5.44 -1.2571,-0.84238 -2.9818,0.19731 -2.8444,-2.08 0.2341,-3.88152 1.1876,-9.0025 0.071,-12.8 -1.798,-6.11574 -8.8608,-8.01164 -14.4978,-6.91555 -1.8462,0.35899 -3.3962,1.442 -5.12,2.11555 m 78.72,-2.11555 c -10.527,1.82758 -17.6168,14.44465 -9.8489,23.22665 4.0555,4.585 11.0494,5.97011 16.8889,5.22667 10.1667,-1.29437 16.4379,-12.74343 10.7378,-21.53777 -3.7372,-5.76586 -11.2092,-8.05594 -17.7778,-6.91555 m -488.64,33.15555 c 3.6432,-7.47484 7.7215,-14.84734 11.84,-22.08 0.6055,-1.0634 1.1645,-2.5732 2.071,-3.41332 1.2286,-1.13855 2.5434,-0.68168 3.1467,-2.66668 1.6615,-5.46613 -5.9651,-4.48 -9.0577,-4.48 -1.3197,0 -3.0011,-0.2834 -4.16,0.48 -3.3091,2.17977 -1.1493,6.22578 2.24,6.24 l -6.72,12.48 h -0.32 c -1.0437,-4.07172 -4.3613,-8.9932 -6.72,-12.48 2.92,-0.0123 5.7243,-3.01324 3.12,-5.68 -2.0309,-2.07953 -7.4777,-1.04621 -10.16,-1.04 -1.1941,0.003 -2.2142,0.0824 -3.0667,1.03109 -3.123,3.47532 1.7175,4.89532 2.9867,6.96891 2.5207,4.11852 4.6174,8.56059 6.9333,12.8 0.8695,1.5916 2.5583,3.6116 2.7911,5.44 0.1806,1.41891 -1.8934,5.09219 -2.9955,5.97332 -2.0239,1.61793 -6.1673,-0.23422 -8.5689,0.65778 -2.1416,0.79546 -2.617,3.95539 -0.9334,5.4489 1.2304,1.09141 3.253,0.72 4.7734,0.72 h 11.2 c 1.3174,0 3.5667,0.42617 4.72,-0.30222 1.8776,-1.18583 1.6048,-4.81395 -0.2667,-5.86668 -0.7831,-0.44047 -1.9865,-0.2311 -2.8533,-0.2311 m 270.72,-25.92 -6.08,12.16 -6.08,-12.16 c 2.7503,0 7.0015,-2.64883 3.76,-5.60891 -2.5468,-2.32558 -8.8643,-1.11109 -12.08,-1.11109 -1.4107,0 -2.6407,0.0274 -3.7067,1.09332 -1.3578,1.35781 -1.3864,3.25246 -0.062,4.64 1.4301,1.4986 3.5751,0.53219 4.8978,2.27559 1.3895,1.83129 2.1388,4.32203 3.1111,6.39109 1.2889,2.74274 3.0032,5.25695 4.2668,8 0.8069,1.75184 1.3392,5.02633 3.6532,5.12 1.4133,0.0572 4.4636,0.53488 5.68,-0.23109 1.405,-0.88477 2.3486,-4.05766 3.04,-5.52891 2.0431,-4.34758 4.071,-10.34527 7.1111,-14.05332 1.1828,-1.44269 2.9377,-0.51762 4.32,-1.46668 1.5883,-1.09043 1.9533,-3.75855 0.5156,-5.12891 -2.4139,-2.30074 -8.612,-1.11109 -11.7067,-1.11109 -1.3758,0 -2.6671,-0.0596 -3.84,0.79109 -3.6363,2.63747 0.1343,5.92891 3.2,5.92891 m -158.0801,-0.56902 c 5.3894,-0.59878 11.9062,4.22543 9.76,10.16891 -1.2858,3.56055 -5.7522,4.9441 -9.12,5.08445 -7.4058,0.30856 -13.9337,-7.71437 -6.72,-13.27113 1.8396,-1.41707 3.8441,-1.73379 6.08,-1.98223 m 273.92,5.04891 h -17.6 c 2.099,-6.66047 15.7536,-7.08793 17.6,0 m 104.96,-5.04891 c 10.7107,-1.38839 14.4171,14.00704 2.88,15.26223 -2.3413,0.25473 -5.2219,0.27793 -7.36,-0.79109 -4.6491,-2.32453 -6.2369,-8.15699 -2.2311,-11.95555 1.9405,-1.84008 4.1866,-2.18832 6.7111,-2.51559 m -259.52,10.16891 c 0,4.67984 -7.1568,5.53637 -10.88,4.92445 -1.0008,-0.16449 -2.2809,0.0132 -3.0934,-0.72 -2.3522,-2.12269 2.9576,-4.24359 4.3734,-4.45336 1.1124,-0.1648 2.4744,-0.34828 3.5911,-0.22218 1.9994,0.22574 4.0097,0.26109 6.0089,0.47109 z"
       id="path1" />
  </g>
</svg>
